/* XPM */
static char *_2b939903b944864e70e06fb4deaab6e6vxpyPdV0K0nHwio[] = {
/* columns rows colors chars-per-pixel */
"65 64 252 2 ",
"   c None",
".  c black",
"X  c #080000",
"o  c #040404",
"O  c #100800",
"+  c #160400",
"@  c #141301",
"#  c #210800",
"$  c #260501",
"%  c #340500",
"&  c #261400",
"*  c #311000",
"=  c #391000",
"-  c #391800",
";  c #311800",
":  c #362500",
">  c #302A00",
",  c #4A0000",
"<  c #4A0800",
"1  c #420400",
"2  c #520000",
"3  c #5A0000",
"4  c #520800",
"5  c #5A0800",
"6  c #4A1000",
"7  c #4A1800",
"8  c #431401",
"9  c #521000",
"0  c #5A1000",
"q  c #521800",
"w  c #5A1800",
"e  c #521808",
"r  c #4A1818",
"t  c #630000",
"y  c #6B0000",
"u  c #630800",
"i  c #6B0800",
"p  c #730000",
"a  c #730800",
"s  c #7B0800",
"d  c #7B0000",
"f  c #631000",
"g  c #6B1000",
"h  c #631800",
"j  c #6B1800",
"k  c #731000",
"l  c #7B1000",
"z  c #731800",
"x  c #7B1800",
"c  c #462301",
"v  c #5A2100",
"b  c #522900",
"n  c #552401",
"m  c #423100",
"M  c #493500",
"N  c #523500",
"B  c #4A2616",
"V  c #632100",
"C  c #6B2100",
"Z  c #6B2900",
"A  c #642803",
"S  c #732100",
"D  c #7B2100",
"F  c #732900",
"G  c #7B2900",
"H  c #663300",
"J  c #733100",
"K  c #7B3100",
"L  c #793605",
"P  c #703415",
"I  c #763623",
"U  c #5A2921",
"Y  c #524200",
"T  c #5A4A00",
"R  c #594300",
"E  c #574F00",
"W  c #664600",
"Q  c #764800",
"!  c #635200",
"~  c #6B5600",
"^  c #775600",
"/  c #776500",
"(  c #726C02",
")  c #7B4A21",
"_  c #840800",
"`  c #880300",
"'  c #980300",
"]  c #841000",
"[  c #841800",
"{  c #8C1800",
"}  c #8B1101",
"|  c #941800",
" . c #991300",
".. c #AD0800",
"X. c #A60500",
"o. c #B50600",
"O. c #A51000",
"+. c #AD1000",
"@. c #AD1800",
"#. c #A51800",
"$. c #B51800",
"%. c #BA1400",
"&. c #842100",
"*. c #8C2100",
"=. c #842900",
"-. c #8C2900",
";. c #8C2908",
":. c #942100",
">. c #942900",
",. c #9C2900",
"<. c #9C2100",
"1. c #843100",
"2. c #8C3100",
"3. c #893801",
"4. c #943100",
"5. c #993700",
"6. c #943118",
"7. c #AD2100",
"8. c #A92601",
"9. c #B52100",
"0. c #BD2100",
"q. c #B52900",
"w. c #BD2900",
"e. c #B52508",
"r. c #AA3401",
"t. c #B53100",
"y. c #BD3100",
"u. c #B53900",
"i. c #BD3900",
"p. c #B53108",
"a. c #8A3125",
"s. c #B03227",
"d. c #C62900",
"f. c #C62100",
"g. c #C63100",
"h. c #C63900",
"j. c #CE3900",
"k. c #CE3100",
"l. c #D63900",
"z. c #C61000",
"x. c #894300",
"c. c #9A4502",
"v. c #8F5308",
"b. c #BD4200",
"n. c #BD4A00",
"m. c #B64501",
"M. c #AE5109",
"N. c #886800",
"B. c #956A00",
"V. c #8C7300",
"C. c #897A00",
"Z. c #947B00",
"A. c #987601",
"S. c #947310",
"D. c #AB7502",
"F. c #894726",
"G. c #974C2B",
"H. c #BB4627",
"J. c #BA5528",
"K. c #B04C30",
"L. c #B86334",
"P. c #C64200",
"I. c #CE4200",
"U. c #C64A00",
"Y. c #CE4A00",
"T. c #C64A08",
"R. c #D64800",
"E. c #C65200",
"W. c #CE5200",
"Q. c #CE5A00",
"!. c #C65803",
"~. c #D65200",
"^. c #D85900",
"/. c #C65A10",
"(. c #CB6602",
"). c #D56F05",
"_. c #CA5628",
"`. c #C85834",
"'. c #CA4B2B",
"]. c #CA6733",
"[. c #D36C30",
"{. c #BA4F45",
"}. c #B56852",
"|. c #C85943",
" X c #CD6746",
".X c #CD6955",
"XX c #D5714F",
"oX c #D47363",
"OX c #998400",
"+X c #8F8900",
"@X c #A58C00",
"#X c #A78600",
"$X c #AC9600",
"%X c #B59C00",
"&X c #B99800",
"*X c #B29118",
"=X c #BBA901",
"-X c #B5AD06",
";X c #BD9C21",
":X c #CDB803",
">X c #D7BA02",
",X c #CFB20A",
"<X c #D6B92B",
"1X c #C69400",
"2X c #DBCA01",
"3X c #D6CE08",
"4X c #EACD00",
"5X c #EED900",
"6X c #FBDD00",
"7X c #F4D812",
"8X c #FFE700",
"9X c #FFEF00",
"0X c #F9EC02",
"qX c #FFF700",
"wX c yellow",
"eX c #FFFF08",
"rX c #FCF706",
"tX c #FFFF10",
"yX c #FFFA14",
"uX c #F2EA0A",
"iX c #F1D82B",
"pX c #FEFB26",
"aX c #FEFC36",
"sX c #FAED2D",
"dX c #DEC639",
"fX c #D78B53",
"gX c #DC8A64",
"hX c #DB9572",
"jX c #E7A071",
"kX c #FFFE46",
"lX c #FFFE55",
"zX c #F9EB4C",
"xX c #FFFF67",
"cX c #FFFD76",
"vX c #F9ED69",
"bX c #E8D65D",
"nX c #EBBBB1",
"mX c #E1B09A",
"MX c #FFFE88",
"NX c #FFFF9C",
"BX c #FFFD96",
"VX c #F1E790",
"CX c #EEC8BD",
"ZX c #FFFFAA",
"AX c #FFFEBB",
"SX c #F7EFA5",
"DX c #F7DACA",
"FX c #EFD0C8",
"GX c #FFFFCB",
"HX c #FFFFDA",
"JX c #FFFFEA",
"KX c #FFFFFB",
/* pixels */
"P.n.E.Y.h.7.O.' ' ' X.w.$.X.$.h.b.n.n.9.7.b.U.y.y.i.b.b.w...X.'   %.d.j.I.y.w.0...w.i.i.P.n.r.7.h.h.%.z.y.h.j.Y.!.(.W.y.w.q.n.U.j.",
"I.I.I.T.U.t. .' ` ' #.i.$.X.7.i.i.b.b.0.q.n.n.y.q.t.h.Y.y.+.' X.  0.h.P.Y.t.0.+...0.g.b.U.U.8.O.i.U.w.%.i.h.h.P.Q.).W.f.w.h.E.h.g.",
"b.I.h.h./.U.8.' p 1 9 w 0 2 9 q q v w 9 9 n v q 9 9 v Z h 3 3 5   h V V Z w 5 2 2 f h C V Z w 4 h H j g j C j v M.).Y.d.g.U.Q.U.j.",
"h.h.g.i.E.U.@.` , % g D z g j C S F C f f S C g g j G K x y y z   D =.1.1.S i y y l D D &.&.z g z 1.D ] &.G C c H M.I.h.i.U.W.E.P.",
"j.h.y.P.U.b. .1 1 t %.i.0.$.0.y.y.h.y.%.9.h.g.9.7.w.P.Y.w...%.d.  j.j.I.I.y.+.X...0.y.y.w.w.$.9.y.U.h.w.y.g.u.H n Z t.g.i.h.E.U.I.",
"P.P.P.P.U.u.5 1 , +.f.i.w.%.w.i.i.i.$...w.h.h.9.+.0.j.R.9.o.%.f.  j.i.i.g.w.$...o.d.i.h.y.0.%.0.U.!.U.y.y.k.I.n.H V h 8.u.i.W.W.I.",
"h.h.h.h.b.C 4 4  .0.%.q.w.@.7.i.i.u.O.X.q.i.h.$.+.9.h.Y.q.X.%.w.  h.i.u.y.g.0...%.w.i.h.y.w.@.q.U.(.U.d.y.h.I.Y.m.F w w r.U.Q.W.U.",
"I.j.y.u.F 0 t 8.b.h.} 6 0 3 0 w w 0 2 5 w V h 5 4 0 w V h 5 f z   D C j j h 9 2 4 0 v V V h 5 0 V A h f 0 9 r.Y.Q.n.F 0 h u.Y.Y.P.",
"P.g.w.D h f ' t.I.<.1 8 6 5 f h h 2 , 4 h V V 0 5 0 V V 5 2 5 h   h V j j h 0 4 3 0 V V V h 5 5 V V h 0 9 6 w m.Q.).E.S w D b.Y.h.",
"U.y.*.h z ' ' 8.4.4 1 6 8 < 5 h 0 2 2 5 h C C f 4 0 h h 2 , 5 f   h j C j j f f 3 f h V h 0 4 4 h j 0 < 9 6 6 n n.).(.8.g z 1.W.U.",
"Y.i.f 6 7.@.O.:.q < < 6 q 1 4 j u 2 , 5 g C F j u f g f , % Q B.  1XD.J C z j g t 5 f h f 0 4 4 0 f 0 9 0 9 9 q n (.(.8.' f Z !.E.",
"Y.g.0 4 7.@. .q q 6 < 6 9 f [ { _ p y l :.,.5.&.&.[ s a 2 ^ :X>X  9X9X0Xh D &.{ _ s [ &.*.[ _ s ] { { g f 0 w w n H n.7.X.f V Q.W.",
"Y.g.g 4 @. .0 7 q 9 < 4 h *.*.{ ` p p ` { -.>.*.*.x k g w &X4XiX  lXMXyX2Xw &.[ _ ] *.>.:.| { l &.&.{  .f 0 h v n b v  .' t V W.R.",
"W.h.u 4 @.u f q n w < w >.,.-.:.{ s d _ [ =.:.*.&.k f q B.>XsXAX  JXHXcXyXb w k s _ *.>.>.:.[ l &.&.{ :.{ f j j n b 7 4 O.3 f W.Q.",
"W.i.f 4 +.g j V v w 5 -.4.>.>.>.*.] s s l =.-.{ z g 0 b =XiXMXHX  KXJXGXsX0X8 5 p ] &.-.>.{ ] ] *.[ { *.{ { z j V b q 9 7.5 f E.^.",
"I.b.C 9 +.i j Z v z ] 4.5.:.:.:.{ ] s a ] -.-.&.j 5 < A.>XvXGXJX  KXKXJXNXrX8 , u [ &.*.>.>.{ { } ] { *.|  .-.D V b q 9 q.f h E.!.",
"k.P.F 0 X.t j F Z :.| 5.5.:.:.<.:.{ a k [ >.2.G h < H =XiXNXGXHX  JXKXKXHXyX5X% 4 k [ =.4.-.{ } } } *.:.| :.<.,.V n q 4 9.j h n.U.",
"l.R.F q O.t i C C { ] 2.5.,.| | >.*.l l *.>.=.F w % OX,XvXBXNXNX  NXJXKXKXBXyX=X% 0 x =.2.-.{ { ] { :.:.| :.,.5.Z H q < 9.j h t.P.",
"l.Y.Z w @.y t 5 h s p >.5.,. . .:.{ l [ *.-.=.Z 7 W &XiXcXcXlXkX  aXNXKXKXJXlX3X$ < j =.2.-.{ ] _ ] { :.| ,.5.c.H A q < 9.z C t.h.",
"j.Y.Z w q.s i u f p y ] -.,.:.| >.*.l &.-.-.G v c OX>XzXxXkXpXtX  tXxXHXKXJXMXeX2X% q G -.&.[ _ d _ *.:.{ >.4.5.F C 0 < q.F J P.i.",
"h.U.J v q.k l z j s t p -.>.:.{ *.[ ] &.&.&.C 8 R =XiXlXkXpXyXqX  rXaXZXHXJXZXlXwX& % h =.&.[ a p d { *.:.,.,.4.K Z 4 < 7.J K Y.I.",
"h.U.J v q.z k j j { s l -.-.-.*.l a a D F V 7 # / ,XzXlXpXrXqXqX  qXyXcXAXHXHXcXeXV.# = C &.] d s _ ] } <.,.,.5.L F 5 , #.F L ~.Y.",
"i.U.J v q.*.z g j x l S =.D S S g 2 2 w v = & Y $X7XzXaXeXqXqXwX  wXrXkXNXGXJXNXlXwXm # 7 C g a a l l ] :.,.,.5.K F 5 1  .Z x.~.Y.",
"P.Y.J n w.-.S j C S f h V h w q e e n c N m / &X2XiXkXyXqXqXqXwX  wXwXpXxXAXGXHXMXzX3X/ / N.v.v.M.M.M.M.r.5.>.>.1.G f , ` 0 3.Q.Y.",
"U.Y.Z q w.5.;.G H V 9 Q B.D.*X<X<X<XdX<X,X>XiXvXzXsXpXeXqXqXwXwX  wXwXpXkXMXZXAXcXcXzXsX7X7X7X7XiXiXbXbXbXfX5.2.x.K j 2 ` 0 K Q.~.",
"m.U.C 9 g.c.3.L H H N.&X,XbXVXVXSXAXAXZXNXZXNXcXlXpXtXwXrXwXwXwX  wXwXwXeXkXlXxXxXcXaX9XyXsXsXvXcXNXGXHXAXzX>Xc.L L j 2 ` h K W.~.",
"P.P.f 4 h.M.c.L b H N.&XiXvXZXZXNXNXBXxXaXtXeXeXeXeXwXwX( uXwXqX  wXwXwX+XuXtXyXpXkXcXBXAXAXAXGXHXHXHXGXZXMXwX&XF S g 5 #.j K W.~.",
"j.g.u 6 n.M.c.J b M V.,X0XsXzXaXpXpXpXyXqXqXqXqXqXwXwX@X. ( wXqX  qXwX( @ ( uXrXwXeXtXtXtXtXtXaXxXxXMXVXbX-XC.H q f j 0 w.S G E.R.",
"k.0.3 9 n.J.c.L 7 : : R ~ Z.2X6X8X9X9XqX9XqXqXqXqXqXwX~ . @ qXwX  qXwX> o > rX0X0XqXqXqXqXqXqXrXyXyX,X*X/ ^ ^ - % < j h d.S G U.Y.",
"d.+.3 9 U.J.G.J e * : c M - - ^ :X6X6X8X9X9XqXqX9X9XwX> . . qXwX  wXqXO . . wX9X9X9X9X9X9X9X9X9X5XZ.N W N.V.W - % 6 C j d.C G E.^.",
"d...t q g.`.G.L n * : M Y W W b : OX4X8X8X9X9XqXqXqXwX& . . 9XwX  wXqX. . . wXqXqXqX9X9X8X9X6X$XN Q N.A.A.V.N * % 9 Z S h.C G E.(.",
"w.+.u w y.`.J.F.A % # m Y T ~ ~ W = ^ >X6X8X8X9XqXqXwX& . . 8XwX  wXqX. . . wXqXqXqX9X9X9X4X/ b ^ A.OXOXV.N ; % % w Z Z I.C &.P.!.",
"q.X.u w k.`.J.G.P 1 # + m Y T ~ ^ W c T :X8X6X8XqXqXwX> . . 6XwX  qX9XX . . wXqXqX9X9X9X>X! H v.#X@X#XA.Y & * 1 4 j F F U.S x u.E.",
"f...t w k.|.L.L.F.9 % + O > M T ~ ^ W b m =X6X8X9XqXwX: . . 9XqX  qX9X> . > wXqX9X8X8X:XN W B.#X@X#XC.R & - 6 3 3 j F F R.S [ q.U.",
"%.o.u w h.|. X].K.g 9 - + X : Y T ~ ^ ^ H : OX5X9XqXwX/ . E qXqX  9X9X~ . ( wXwXqX8X&Xc Q A.@X@X#XV.T & * 7 f y 3 g J F Y.F D 7.U.",
"o.X.u v h. X X XK.s a V = + O : Y T ~ / ^ 8 ~ qXqXqXwXwX. 0XwXqX  9XqX4X. uXwXqXrXuXS.n A.@X@X@X/ R $ * n Z x p 2 u K G Y.G =.8.b.",
"o...f v h.XX|. X'.s p S n = + O & Y W ! R / qXwXqXqXqXqXwXqXqXqX  qXqXqXwXqXqXrXaXGXVX;X^ OX@X/ M $ % 7 H 1.l p 2 3 C J Y.J 2.w.i.",
"o.%.g 0 g. X{.{.{.y t z J v % # + : m : ( 5XwXqXqXqX9XqXqXqXqXqX  qXqXqXqXqXqXyXxXAXHXMX-X^ N.M $ % 6 V G -.{ _ 3 3 u S W.L 3.y.h.",
"@.f.g 0 y..X}.{.{.y 3 y S F w % $ $ - E :X8XqXqXqXqXqXqXqXqX9X9X  9X9XqXqXqXqXrXkXNXAXJXaX$X~ c % 1 w K -.>.:.} y t 3 j i.K 5.P.y.",
"9.r.S w y..X|.|.{.p p l D G F 0 1 % R $X4XwXqXqXqXqXqXqXqX9X8X8X  8X8X9X9XqXqXqXyXlXNXHXZXpXZ.c 6 0 S 3.5.,.:.| a y u g w.F 4.P.I.",
"g.r.F V d..X.X X|.` _ >.3.1.=.z 5 , ( =X0XqXqXqXqXqX9X9X8X9X8X6X  4X6X8X8XqX9XqXqXpXkXxXHXxX:Xn w j =.c.4.,.:. .k g S S w.S 4.U.I.",
"h.u.F V d..XXX X{.` ' 5.c.3.1.[ p W +X2XqXqXqXqX9X9X8X8X9X6X@XN   M OX4X8X8X8X8X9X9XtXaXGXcXeX^ w C =.c.5.4.<.| k z L K g.z 4.n.P.",
"h.u.F V g.oXoXXX X'  .r.c.v.5.[ p ( -X5X8XqX8X8X8X8X9X6X%XW H Q   W c R $X4X6X8X8X8X9XeXlXMXkX3XJ C 1.5.c.4.|  .a D L 1.g.j 4.Y.I.",
"b.u.F v y.gXfXfXXX . .5.c.M.5.[ ^ +X3X5X8X8X8X8X8X6X=X~ b ^ B.@X  Z./ W c ! %X>X6X8X8XqXwXcXcXlX*XJ G 3.c.5.<. .a x 3.1.g.z 4.E.Y.",
"I.i.C w u.hXfXXX X .` { 5.M.2.x +X%X2X5X6X8X8X4X%X~ b ^ N.#X$X$X  OXV.N.^ W c W %X:X6X9XwXyXBXMXdXV F 3.c.5.:.| s D 3.3.j.S 5.I.I.",
"j.b.S 0 h.hXgXfXXX .` _ :.5.G Q +X-X2X5X8X4XOXW H ^ N.OX@X%X%XZ.  ~ / V.V.N.^ W c W V.2XqXeXpXlXsXA.C K x.c.,.:.l D 3.3.W.D >.I.I.",
"Y.b.C q P.jXgXgXXX| _ _ { -.j / $X:X2X6X%XN W ^ B.#X@X&X%X$XOXM   M ! / N.V.V.N.^ W b M :XqXeXyXrX=XV J x.c.,.:.l x 1.K Y.D ,.P.P.",
"R.b.V 9 b.hXgXoXXX .} ] [ D C / $X2X5XZ.n ^ A.@X$X%X%X$X@XV.Y &   @ > ! ~ / V.C.V.N.^ W = A.qXwXtX3XH J x.c.,.| l k G =.P.=.r.h.h.",
"W.n.h 9 h.jXgX.X.X` } i f h H / =X=X^ Q A.Z.$X%X%X$XOX+X/ m O X   X O > Y ! ~ / V.Z.Z.A.N.c D.wXwX0XQ Z 1.3.2.:.l i D 1.Y.=.r.h.U.",
"W.n.h 9 E.jXgXoX.X| [ u 9 9 b C.:X/ / Z.@X$X$X$XOXV./ E : + + X   X X X @ > T ! ! / Z.Z.Z.A.^ N.wXrXA.H J K -.*.l a &.2.P.G r.I.I.",
"Y.u.h w Q.jXgXhXnX6.*.u 6 < 7 C.N.N.OX@X@X@XOXN./ ! m ; # $ + +   + + X X O & > T E E / Z.OXOXN.B.wX%Xv A F D [ f g G 3.U.D r.Y.Y.",
"P.m.C V ^.jXgXCXCXnX;.S q 8 N ! ~ Z.OX@X/ / ~ T M : * & $ $ % %   1 % $ + X X O > m Y T Y ! Z.$XB.OX^ 8 A Z D h 9 0 D 2.P.x | i.U.",
"n.m.F F ).hXCXFXCXDXmXJ h 7 c M ! / ~ ! ! Y m : ; & * * = 6 5 i   y u 4 = # + + X o & > M Y T T T T B 8 q V w 9 9 9 C 2.h.x { t.P.",
"U.i.D K fXmXCXCXCXFXDXmXC q 7 - M N R M c : - = - 8 7 w j k s s   s s l j q - $ + O O O @ & : m m # # = 8 8 7 9 9 < q 1.b.x | q.i.",
"Y.u.D 1.^.<.mXnXFXDXDXDXmXw 9 6 8 8 8 c 7 8 8 6 V Z G >.:.{ ` `   ` ` _ *.2.J n 6 * $ # + # & & & + & * = 6 6 0 9 1 < P.U.&. .t.i.",
"I.b.F H Q.q.' }.nXDXDXDXCX}.G.a.I I F.F.F.G.G.K.L.]. X].|.K.`.K.  K.K.K.{.[.[.L.G.F.I U B B B B r U ) F.P q 0 0 0 4 O.k.-.j 7.h.h.",
"P.I.n.x.L 8.' ' oXFXDXDXmX XK.K.K.K.K.`.`.`.`.`.].[.[.].`.'.'.'.  H.s.s.K.[.[.[.[.].J.K.G.F.F.I I a.G. XK.Z j j z q.w.C v z 9.w.g.",
"j.j.Y.Q.3.w ` X.e.oXDXmXXX].J.H.J.H.s.H._._._.'.'.'.].[.L.H.'._.  H.s.s.K._.[.[.[._._._._.J.G.G.6.a.K.[. XG.S S g.g.C v Z r.q.q.y.",
"h.P.~.^.!.D , _ 7.e..X]._.J.H.'.'.'.s.s.s._._._.s.s.H.[._.H._.'.  '.s.s.s.J._.[._._._._._.].].J.H.s.H.].].J.;.q.h.S v K n.y.9.y.i.",
"P.P.Y.^.W.w.` 5 &.@.O.t.i.8.@.8.y.w...' O.9.y.i.w.X.#.n.t.@.q.y.  f...'  .q.P.P.h.g.g.h.h.j.U.i.8.O.q.P.P.P.h.y.D V =.n.Y.h.y.j.P.",
"I.j.P.^.^.f...7.D l  .p.t.e. .<.r.w.$.O.O.9.t.i.q.'  .b.w.%.0.d.  d.+.'  .y.I.I.I.g.g.b.P.Y.U.m.8. .8.!.E.T.r.G S G b.^.E.I.R.Y.P.",
"I.I.U.W.W.0.X.w.b.*.f h j g g i j z k g f j j j f 2 5 C S k k g   k u 3 f S F F F j j j C S Z A h f C Z Z A C S &.m.W.^.~.Y.^.~.P.",
"P.I.I.I.h.@...y.!.i.z x z k a a k l x x k z D G z y g =.&.x x k   l a i x 1.3.1.1.G x z D D G F z z K 1.1.K Z h t.~.~.~.Y.Y.^.R.I.",
"h.P.h.g.q.o.o.y.W.W.h.w.9.+.$.w.q.0.d.g.w.g.h.h.g.$.@.j.g.y.y.0.  f.%.%.j.R.~.~.R.g.%.w.h.P.n.b.w.y.I.W.Q.(.n.@.0.Y.~.I.P.U.Q.~.b."
};
