/* XPM */
static char * floor_xpm[] = {
"48 48 5 1",
" 	c None",
".	c #CC817A",
"+	c #895654",
"@	c #61393B",
"#	c #3F1F3C",
"                                                ",
" ....+.....+....+....+.....+....+....+...+..... ",
" .@####@@###@@@@#@@@@##@@###@@@@#@@@@#@@@##@@@. ",
" .@#@@####@#@@@@#@@@@#####@#@@@@#@@####@@@####. ",
" .@#@@@@#@@##@@@#@@@##@@#@@##@@#####@@#@###@@#. ",
" .###@@@#@@@#########@@@#@@@#@@#@#@@@@###@@@@#+ ",
" +#@#@@####@#@@###@@#@@####@####@##@@##@#@@@##. ",
" .@@####@@###@@@@#@@####@@###@@#@@####@@##@@#@. ",
" .@@@#@@@@@#@@@@@#@@@#@@@@@#@@@####@@#@@@####@. ",
" .@####@@@@##@@###@####@@###@@##@#@@@##@@#@@##. ",
" +##@@##@@@@########@@####@#@@#####@@@#@##@@@#. ",
" .@#@@@##@@##########################@###@@###+ ",
" .@##@@@###############################@####@@. ",
" .@@#@@@@@############################@@@@#@@@. ",
" .#########################################@@@. ",
" +#@@@@@#@############################@@@@##@@. ",
" .##@@@################################@@@@###+ ",
" .@#####@###################################@@. ",
" .@@@@#@@@@###########################@@@@#@@@. ",
" .@@####@@@############################@@@#@@@. ",
" +###@@##############################@#@####@@. ",
" .#@@@##@#@##########################@###@@###+ ",
" .##@@#@@##############################@#@@@##. ",
" .@####@@@############################@@##@@#@. ",
" .@#@@##@@###########################@@@@####@. ",
" .##@@@#@############################@@@@#@@##. ",
" +###@@###@###############################@@@#. ",
" .@@####@#@#########################@#@@#@@###+ ",
" .@@@#@@@###########################@#@@####@@. ",
" .@@@#@@@@############################@@@#@@@@. ",
" .@@#################################@@@####@@. ",
" +###@@#@################################@@###. ",
" .@#@@##@@##########################@@@#@@@#@#+ ",
" .@####@@@##########################@@@#####@@. ",
" .@@@#@@@@###########################@@#@@@#@@. ",
" .@@####@################################@@##@. ",
" +###@@###@########################@@@@@#@@@#@. ",
" .#@@@##@@@@####@#@@#@####@@####@###@@####@@##+ ",
" .##@@#@@@@@#@#@@#@@###@@####@#@@#@####@@####@. ",
" .@####@@@@##@#@@#@@#@@@@@#@@@####@@#@@@@@#@@@. ",
" .@#@@##@@##@@#@##@###@@####@@##@#@###@@####@@. ",
" .##@@@#@##@@@######@####@@#@@#@@#@#@####@@#@#+ ",
" +#@@@@###@@@@#@@#@#@@@#@@@####@@###@@@#@@@###. ",
" .#@@###@#@@###@##@##@@#@@##@@#@##@##@@#@@@@#@. ",
" .####@@@####@###@@@#@#####@@@###@@@#@####@@#@. ",
" .@@@##@@@#@@@@#@@@@###@@##@@@@#@@@@###@@####@. ",
" .....+...+....+....+.....+....+....+.....+.... ",
"                                                "};
