/* XPM */
static char *result[] = {
/* columns rows colors chars-per-pixel */
"128 96 15 1 ",
"  c black",
". c #1C1408",
"X c #1C0414",
"o c #2D2410",
"O c #3D3514",
"+ c #310820",
"@ c #491431",
"# c #611431",
"$ c #791C35",
"% c #494114",
"& c #4D5118",
"* c #902431",
"= c #A82D31",
"- c #C04135",
"; c #D44939",
/* pixels */
"                                           +++                                    +++                                           ",
"+++@@@+++++@+++++++#X++++++++@+++++@@@++++@#@+####################################+@#+++++++@+++++@@@++++@@++++++@@@@++++@@++++@",
"##$#####@@@++@@+@+@$X+++@+@@++@@@#####$####@+#**=*#=*##=*==*=*=#=-##=*-*=##*=#*=**#+@#+@+@@++@@@#####$######$$==****###$$$$$###@",
"##$$$$$##@@@@@@@@@@$X++@@@@@@#####$$$$$###@+$**==*=*==-==*$==-===-=-==*$=-==*=*==**$+@#@@@@@@@@##$$$$$####$**********==*=*$$*$$$",
"$####$$######@@@#@@*X++@#@########$$#####@+$**===*===$=-==**##***=$===-=-=$===*===**$+@#@@@######$$####$$$$$$$$$$*$$=**=$***$$$=",
"$$$$$$$$###$###@@@@*X++@@####$###$$$$$#@@+$*$=$=======*=--=#--#=====-==-=*=======$=$*$+@@#######$$$$$$$$*$$$$$$$*$==****$$$****$",
"*$$$*$$=$########@#*X+@@##$#####$=$$@@@++$*$=========--=*##$--$########*=--=========$*$++@@@###$=$$*$$$***$**$$$*********==$$$$$",
"$**$$$#@@@@@@@@@@@@@@@@@@@@@@@@@@@@@+++$$*======--====--#--;;;--;;--;;-$--====--======*$$+++@@@@@@@@@@@@@@@@@@@@@@@@@@@@@@#**=*=",
"****$@    ++++++++++++++++++++++++++$$$**==*=====;$=====#-*****-#*-#*-#*=====$;=====*==**$$$++++++++++++++++++++++++++    @===*=",
"**=*=@+$$$$$$$$$$$$$$$$$$$$$$$$$$$$**=========*==*=====-#;*-==*;#*-#*-#=-=====*==*=========**$$$$$$$$$$$$$$$$$$$$$$$$$$$$+@====*",
"*****@+$$#**$$$**$$$**$*$$$=$*==****=======-=--====--===#-*=--*-#*-#*;#-===--====--=-=======****==*$=$$$*$**$$$**$$$**#$$+@*=$==",
"**$$$@+$$$*$$$**$$**$***$$****====*=*======-=*;$-=-=-===#;*=--*;#*;#*-#====-=-=-$;*=-======*=*====****$$***$**$$**$$$*$$$+@*$$*=",
"*****@+$#$#$$***$$$*$***=$****=*=*;$**=*==-=*====-=-----$;*===*;$*;$*;$------=-====*=-==*=**$;*=*=****$=***$*$$$***$$#$#$+@*=*=*",
"$***$@+$$$$*$$$$$$****$*$=*=*===**========-==--=-====---=*=-=-=*==*==*=----====-=--==-========**===*=*=$*$****$$$$$$*$$$$+@****=",
"=****@+$*$$$$$$$$*$*$*==$=*==***=**==*=*==-==-==-----==----===--=-----=--==-----==-==-==*=*==**=***==*=$==*$*$*$$$$$$$$*$+@***==",
"***=*@+$**$$$*$*$$**=*$*=******=*===*=*-=-==--===-----=---=------==-;-=;-=-----===--==-=-*=*===*=******=*$*=**$$*$*$$$**$+@===**",
"**=**@+$$$$*$$**$$**$***$$*$*$$==$==*-*====-----==----=;=-----==-==--=--=--===-===-----====*=*=$==$$*$=$**=*$*****$$$$$*$+@====*",
"==***@+$*$*$$*$$*$**$=**=$**=*$======-=*======--=-==-=-=--====-;-====;=--=-==-----=-====--=====*==$**=*$*$**$**$*$$$$*$$$+@=====",
"====*@+*===-=--==-=---;;-;;;;;-;;;;;;;-;;;;---;;;-;-;;;;;;;;;--;;;--;;;;;;;;;-;-;;;---;;;;--;;--;;----;;-----==--=--=--=*+@*===*",
"*==**@++++++++++++++++++++++++++++++++++++++++++++++++++++++++++++++++++++++++++++++++++++++++++++++++++++++++++++++++++++@**$**",
"********$@++$$$$$$$$$$$$$$$$$$=+$$$$$$$=$$$**##=**=$$*$$$$$$$$$$##########@@@@@#@@*X+@#$***$$$$*+*$$$$$$$$$$$$$$$$$$++@$$$$$$$$$",
"$*$$$$$$$@++$$=****;;--=*====--+$$$$$$$$$$*$$#=*-=**********$####$$$$###@@@@@@@@@@*X+@#$$$$$$$$$+--=***-@****-@$*$*$++@$$$$$$$$#",
"****$$$$*@++$$$*$*;**=*#***=*--+##$$$$$$=$$$$@$$$$$-$$-==$#############@@@++@@+@+@*X+@##$$$$###$+--==**-@=$*$$@***$$++@**$$$####",
"===*=====@++$*$*$*;*$-*@==*==-;+*=---===**==**=*************==---===*-*******==**##X+@**==*$$$$$+;-=**=*-@***@*$*$$$++@==***====",
"+++++++++@++$***=*;*$;*@***=*-;+++++++++++++++++++++++++++++++++++++++++++++++++++++++++++XXXXXX+;--*=**=$@*@***$**$++@XXXXXXXXX",
"***==****@++$$*$$**-==#==@@*=-;+$*$$$$$$=*+XXXXX++@@#$**$*$$$#=**********=**-==*$$#***=***===***+;--**===@*@-$$**$*$++@******=**",
"##$$$$$##@++$$*;=$$**=#@@*@**-;+@++@@+@+@*+XXX++@@#$$*$$###$##$$*$$*=*-=*******$$$#@#+@#$$$$##@@+;--=*=*=@**;******$++@$$$$$$$$*",
"$*$$*=*==@++$$*;$-;;-*-;;*@==-;+#@@@@@@@@=+XX+@@#$$$$$$$$##$##$$$***$=**=$$*$$$$$$###@@#@#$$####+;-=**=*=*@-*$****$$++@$$$$$=$$$",
"$$***$=**@++$*$;-*$*;#*==-#=*-;+###@@@#@@=+X+@#$**$$$$-$*#$###****$$$****--$$$$$$$$##@###$$$$###+;-=***=@@***-**$$$$++@*$**#$***",
"***$$$***@++$$*$*=**-#***==*=-;+#$####@@@*+X+#$***$$=$$*$#$###$$$$-=*********$$$**$$$###$*$$=$##+;-=*=*@****==;$*$$$++@$$**#$$$$",
"$$$==****@++$******-**@****==-;+####$#@@#*++@$***$$*=-**$$###$$-****-=--***$****$$***@#$$$$$$$#$+;-*=*@**=@$===-**$$++@$$*$*=*=*",
"=****====@++$$*$$$$;*=@*=====-;+$###$##@#*++@$*****-==*$$$$$#$*-=-****$#**$*******==*#@#*$$$$*$#+;-=**@=*@==;**;$*$$++@$$**$=*==",
"===****#$@++$***$==;=*@=*=***-;+##$$#$###=++#$$$*--$==***$###$-=----=*#***$$$$$*==$=-@#-*=*-$$=$+;-===@***$-=**-*$*$++@*$$$=*===",
"======*$*@++$**=**=-**@**==*=-;+$$$$$*$##=++#**-***$$*-***#$$$=$$#****==*=**===***$$*##$$$**$$$$+;--===@*=*=*$;=**$$++@**$***=##",
"$=*=*====@++$*$=*$-=**=+=====-;+-*=*=-$##*++#**==**-$****$#$$$$***=**--=-**=*=--**=$*#*-$$*=*$$$+;-===**$$$--;*=**$$++@*$$***$**",
"$$*******@++$****=;;;-$#====*-;+$******##*++#**=*-**=***$$#$$**$$******-=*=-*==*=**=*=#=*=*=*=$$+;-=*=*=*=*=*******$++@$$$****##",
"*=**=*=*=@++$**=$****=**====-=-+-**-*=***=++#$******$$$$$$##$****-****=****==******$$$$==**=-$$$+-*==*=*****=$-$***$++@$$$$$****",
"$$*=***$*@++$$$$$$$$$$$$$$$$$$$+$$**=-**$=++###==*=*-$$*#*$$$****-***=*******==-*-*=$$$--*=**$$$+=$$$$$$$$$$$=$$$$$$++@#***$****",
"$==***$$$$@++++++++++++++++++++#-$=**-**$=++@##*$$$$$=$$=*=$=$$==$--*$$$$$***#*-====-*#*$$$***=-#++++++++++++++++++++@$=*=*=$$==",
"===******@++$**=-=-;;--;;-;-;;-+=-*****$#=X+@##$#$$##$*$$$$$$$*==-*******$**#$****===$$#**$$$*=-+=-;;;;-;;;-;---$==$++@$$$*$$*==",
"==*$$****@++$$-#$*****=*=*-#=-;+=*$$***$#=X+@@#$$###$#$$$$$#**$==*$$****$***==-=****=$$*$*$$**-=+--==*=*=@@@@*=$*=*$++@$$$$**$==",
"**$**$$$*@++$*-@*$***=****;@--;+=$$***$##*X+@@##$#####$=$$*#$$***$**$$$*********==$$$#@#**$$*$$=+;-==*$*@#*$$-*****$++@$$$$$$***",
"$$$$$$$$$@++$$-@$**==*====;@=-;+$$$***$##*+++@@####$###$$$$@$$$$$$$$$$$$$-=****$$$***#@#**$*$-$$+;-*=*$=@=**$;*****$++@$$$$$$$$$",
"$$$$$$$$$@++$*-$@**=****=*-#--;+$$$$$$$##=+++@#@##@@####$$#@##$$$$$$$$$$*$$=**=$***$$@*$$$$$$$$$+;-=**==@*==$-**$$*$++@$$$###$$$",
"##$******@++$$$;@****=**=*#==-;+$$$*$$###=+++@@@@@@@@@##$$$@$####$**********--*-*$$*$##$$$$$$$=$+;--**=*=@$$-$***$*$++@$$$$$####",
"@@@@##**$@++$**-$@***=**=#@=*-;+@@#@####@*++++@+@@++@@@####+$######$$==****&##$$$$$##@+###@###@@+;--**=*=@+=-=$****$++@####$####",
"+@@++++++@++$*$*;$@==**=#@*===;++++++@++@$+XXXXXXXX+XXXXX++XXXX+@@++++++O&@Oo+&o@%O+&%@O+o+++#+++;-==****@$$;**=**$$++@X+++XXXX+",
"XXXXXXXXX+++$$$**;$@**=#@====-;+XXXXXXXXXXXXXXXXXXXXXXXXXXXXXXXXXXXXXXXXoOoo%O.%O&o&Oo%.OXO%.XoX+;-===*=*@+=-=*$$*$$+++XXXXXXXXX",
"=====**$$$++$$**=*-$@*#@**=*=-;+=****$$########$**==--*$######$*==-===-===--oo*oo%.o.o&O*o*o**o*+;-===*==@$$;*==**$$++#==*******",
"##$$$$$##@++$$*$**=*$=@**=*==-;+$$$#$$$#######$#$$$=-=-==####$$$$*$$$$$###@@##@#oOo&O@oo$$*$$$*$+;--*===*@+=-*****$$++@****$####",
"$########@++$$$**$*$=*=@*=*=*--+$$$$$$$######$$$==*******$##$####$$$$$##@@@@@@@@@o*X+@o$$$$$$$$$+;-=====*@$$;***$**$++@$$$$$$$$#",
"$$$$##$$#@++$**=*$-***=@***=*-;+$$$$$$##$###**$=**-$$*$$####$$$$####$$####@@@@@#@@*X+@#$***$$$$=+;-====*=@+=-=***$$$++@$$$$$$$$$",
"*$$$*$$$$@++$$****;*=*=#**=*=-;+=$*$**#$###$$$$****==$$#$###$$$$$$$$$$$###$###@@@@=X+@#$***$$=$$+;-==*===@$$;==**$@@++@$$**$***$",
"$**$$$$$$@++$$$*$*;**==#===*=--+$*$$**#$#$#$==*********#$##$$$**$$$*$$=$########@#=X+@$***$$*==*+;-**===**@-$$**$@-=++@**$$*==$*",
"*$$*$$$$*@++$*$**=*;;;-=**=*=--+**$$*$*$###$**-===***$*#$##$#=-$**$$$$$$#$###$##@#=X+@$*****=-=*+--=*==*=*@;**$$@-$$++@****===*$",
"$$=*=*=$$@++$*$**********==**=-+*$$$**$$#$#$****$$**$**#####$=-*$$*$$$$*$##$$#$###=X+#$$$*=-$==*+-=**=**=*@-**$$@=*$++@$*==$==$$",
"*$$$$**$$@++$$$$$$$$$$$$$$$$$$=+***$$$$####=-==*$$**$$$$$$##$-=$$-*=*=$$=$$$$$*###*X+#**=***$$*-+*$$$$$$$$$$$$$$+$$$++@=***$$**$",
"*==*****$#@++++++++++++++++++++#$**=*==$##$*=*=-=******$$$*#-****$***#*$$=*=*==#$#*X+##*-=**=$**#++++++++++++++++++++@#==**=$**=",
"=*****==*@++$*==----;=---;;;--$+$==***$$#$$******=-*****$#*#=****$$$$$$$$$******$#=X+##*=*=**=**+*-;-=-;;;;;--=-==*$++@=*=**=*=*",
"*=**$*==*@++#*$****$-#**====*--+=*=*=*$###$**=*==*==*==*$#*#**#****$$$***=**-*=***=X+##******$$$+--**$-***=$**$$**$#++@*****$$*=",
"===$*****@++#$**$$***$***=-#=--+$*=*$$$#*##-**=-=*=**-=$$$*$$**$***$$****$=**==**$=X+@$$==*=*=$$+;-=*=*$$*$***$$*$$#++@==*=*=$==",
"=*$******@++#$$**$$$$$$$=*==*-;+$$**$$$###$$***-==**=***$$*$#*#=***$***=*$$***=**$*X+@@$*$$*$$=$+;-=*****$*$$$$****#++@*=======*",
"*=$**$$**@++#$$$$#@+++@@$$**=-;+*$$$$*$$###$*******$****#**$$==*=$**$$$*===*****$#=X+@##$#$***$*+;-*==*=*$**$*$*$$##++@****===*=",
"*=*$*$$**@++#$*$*#@@@+++@#$**$;+$$$$$$*$###$$$****$****$#=**#*=*-*$*$$**==*$$***$#=X+@###$#$$*$$+;-*-=***$+@#***$$##++@==****=*=",
"$$$$$$$**@++#*$=$##@@@+++@$$=-;+$-$$*$$$*#*$**$$$******#$*-*#$$$$#**$$*$$=$$***$##=X+@@##$#$##$*+;-=*****@**-#$$$$$#++@**==$$$$$",
"*$$$$$$$$@++#$=-$$##@@@+++@$*$;+#$$$$$#####$$$$$$$$==*$##$$##***$#**$*$=$$$$***$##*X++@@##$#$#$$+;-=**$*$*@$#*$$$#$#++@*$$$****$",
"$=$$#$$$#@++#$==*$###@@@++@$=-;+##$$######$$$$$$$$*$$=#@$$*##$$$=$$$$$$$$$$$$$$$##*X++@#@#####$$+;-*****$@*-$#*$$#*#++@=$***$$$=",
"$$##$$$$$@++#$=-=$$###@@+++$*-;+##$$$$$####$**********#@#**$#*$$$$$$$$$$=$$$*$$###$X++@@@@@@@###+;=-*$**$+-$@;$$$*$#++@*=*$$*$$$",
"#@###@###@++#$*-=*$$###@@++$*-;+@#####$######$$==****$#@$$$$####@###@###@@@#@####@$X+++@+@@++@@@+=-$$$***@$@+-*$$$$#++@$$$$$###@",
"+@+XXXX+#@++#*$=-=*$$###@+@=*-;+XXX+++XXX+@@++++++@@@@+X++@@++++@++++++#++++++@++@#X++++++++@++++;-***$**$@*-*$*#$##++@XX@@++++@",
"         X++##$*=-=*$$$##@#*$-;+                                                   X            +;-***$**$$$**$$$$##++X         ",
"*********@++#$*$*=-==*$$##$*=-;+$##$$#$##* @@***====***********==$$$$$***=======$*===***********+;-$**$**$$**$$#*###++@=========",
"@#@@#$#$$@++#$*$$$*=-==*$$***--++++++++++% X+@@##$###$##############$$**$$$$$$$$$$#@@@@#####@@+++;-**$=$*=*$$**$$###++@#####@@@@",
"@@###@$##@++##$$#$$$$$$**$$**=-+@+++++@++% o+@###############*###$$$$$$$*##$##########@@@@##@@@@+--*$**$$*$*$$$$$$$#++@##@@@@###",
"###@@@###@++#$#$$**$*##*$*$$**-+@#@@#++++$ o+@#$$$####*#$#$$@#$$$$$$$$$$$**##################@@@+-****$$*$$$$*$$$###++@###O#####",
"@@@$$####@++##################*+@@@@##++@% %+@#$$$o#*##$##$$@###@@$$#########@@@o#@%#####$##*#@@+*#$$$$$$$$#########++@@@#o@@###",
"$###O$$$oO@++++++++++++++++++++##@@@##@+@& o+#$##%@#$O#%@@#%#$O$#@@@#$$$#O#@####@@O$$%#$######%##++++++++++++++++++++@O#O##$$#O*",
"$$$##OOOO@ .%%&&%O&&&%%%&&&&&&% @%#%@#O+O% XO#$#%##$$%O@@%##O$OO%%O@@%+%oO@##oO##oOOOO@O$##%#$O@ %&&&&&&%%%&&&O%&%%%. @@OOOO@#oO",
"###OO#@OO@ ..%OO%%OO@@OO%O%OO%& %%%oO%OO%&.O@#o%O%%@$OO##oo%OOOOO$OOO@OO%O@oOOO#$%@O%@%%$OO%##*# &%OO%O%OO@@OO%%OO%.. @OOO#OOO$O",
"O+O#OO#OOo ..%%O@%#OO@OO%#@O%%& %%%Oo@O%%& oO#OOO##%O#O@OO%OoOO%%+O%OO%%#%#OOOOO#OO%O%%OO%%OOOOo &%%O@#%OO@OO#%@O%%.. oO#OooOOOo",
"@OOO@OOOOo ...OOOOO@OOOO.OOOO.& %OO%OOOO.&.oOO%O@OOO@OOOOOOOOOO%+OOO+OOOOOOOOOO%OOOO@%O%+%OOOOOO &.OOOO.OOOO@OOOOO... oOOOOOOOO%",
"O@OOOOOOOo ..O.%oOOOOOOOOOo%.O& oOO+Oo%.O%.OOOO%O@OOOOOOOO@OOOOOO+OOOOOOOO#OOOOOOOOOO%o%OO@OOo%O &O.%oOOOOOOOOOo%.O.. oOOO+OOOOO",
"OOOoOOoOoo ...OOOO  OoOo.%OOO.& OOOO%OOO.O.%.OO%OOOoOOoOoOooOoOOOOOoOOoOoOooOoOOOOOOOOOOOOOOOOOO &.OOO%        OOO... oOoOooOoOO",
"OO@ooOOOoo ...OoOO&o OOo.OOoO.% oOooOOoO.&.Oo.ooOO@ooOOOoOOoOOOOOO@ooOOOoOOoOOOOOooOOoooOoOoO.O% %.OoO   ....oo.oO... oOoOOoOOOO",
"oooOooOoOo ...ooOOO&o o  oOoo.% oOO.oOoo.O.ooooooooOooOoOoo@OO@ooooOooOoOoo@OO@ooOOOooooO@oOOOoo &.oo   .ooooOOOOo... ooOoo@OO@o",
"oooooOooo. ..oooOooo&o o .Oooo% oooo.Ooooo.ooo.OoooooOoooOooooOooooooOoooOooooOoooooooo@ooooOo.o %ooo   .ooooO&&&.o.. .ooOooooOo",
"oooOooo.o. ..OooooOoo&o OooooO& ooooooooOO...ooooooOooo.oooooooooooOooo.oooooooooo.Oooo.oooo.oOo %Oooo   .ooO&&&.oO.. ..oooooooo",
"oooooooo.. ..Ooooooo&o&o ooooO% ooooooooOo.oOooooooooooo..oooooooooooooo..oooooooooooooooooooOoo OOoooo  .ooO&&.ooO.. .o..oooooo",
".oooooooo. ..Ooooooo&&o&o oooOO oooo.oooOo.o%Oo..ooooooooooooooo.ooooooooooooooooO.ooooooo.oooo. &Oooooo  .O&&.oooO.. .ooooooooo",
".oooooooo. ..ooooooooooo& oooo& oooooooooO.Oo%o..oooooooo.o.o.oo.oooooooo.o.o.oooo.oooo.oooooo%o %oo.oo.o  O&.ooooo.. .oo.o.o.oo",
"oooo.o.oo. ..oooo.o.o.oooooooo% o..ooooooO..o.o.oooo.o.oo.oooo..oooo.o.oo.oooo..ooo.oooo.o.oo.oo Oooo.oooo O.o.oo.o.. .oo.oooo..",
"...o...o.. .......o...o..o....O o..oo....O.oo..o...o...o.o.........o...o.o......%ooo...o..ooo.OO %....o..o...o....... .o.o......",
"........o. ..oo........oo...ooO .......ooO.oo.o.........oo.....o........oo.....oooO.oo.......... Ooo...oo........oo.. ..oo.....o",
"..Oo...o.. ......%o...o..o....O .%..o.............Oo...o..........Oo...o.........o.O.....o.....o O....o..o...o%...... .o........",
".......... ....O...........O... ......O.....................o...............o.....oo..........o. ...O...........O.... ......o...",
".......... ...................+ ................................................................ +................... .........."
};
