/* XPM */
static char *fe3f802746d24ac7bd80ebc11c67780ew8sMUbrGffmIqBYe[] = {
/* columns rows colors chars-per-pixel */
"128 94 13 1 ",
"  c black",
". c #0C0408",
"X c #201018",
"o c #351C28",
"O c #452439",
"+ c #593145",
"@ c #693D55",
"# c #7D4565",
"$ c #8C5171",
"% c #A0597F",
"& c #B06590",
"* c #C4719C",
"= c #D979AC",
/* pixels */
"XXXXXoo  ..XXXXX..XXXXXOO oO XXXooooooOOo++XO     .. .++.#OO$@.@++oXXXoo+##+XXXo+++o++XooX . XXXooooXXXXXo  oooOO+OooooOooooXXX.",
"     oo ...       .o ..oo   O  .X.o.XXO@oo@OOOOOO@@+@+@XOO.XoXX..# . ...O+O@   X ..@X.  . o .O+.X...     o X.X.@@.o  .OXOO      ",
".XXXXXo X oo...Xo. Xoo.OO   O  X .o X  X  .+X.. .O..X..X++oX o Oo .    @OX X  .X .#X   X    $@X++@@@@@+  X oXX...o $O.%X....... ",
" ooooXX oOX  ..+X.  o+oO# oX O.XX. . . . Xo .   oX     X X   . Xo    XO#o.  oXXX .#     o X %@X.XoX+@%%+ X +oX.+.+O#o%%&+@+#@@#O",
".oooX X +#+ .  oX.+ .@+O# X X+  X oX+.    X  X o@  o o     X..+ X@@o@+#Oo....XX.  X     X o.#XXo.  Xo++O X +$###.. . ..+o...X...",
"  XX. . o+%O X+OOooO.OO@#.... X. @$oOo  . o...+OO  .  OO.ooX+++O OXo$O.XXooX.ooX.XO  .oX+ X *oXX..  X   XX +$XX.##X  ...oo......",
".   . . X+.O#++.%. Xooo@#   XX.#+++@ @OXoX  ooX.+..XX..++XX+++X+#oO&OXOO..oXOOXXXo#  Xoo@ X #++...X X..O@o +oXX..X#  XX..OO+XX.&",
". .X  O X# +.  . O  ..OO$ .  XX...# o+O##@$#XXX.OoX..XXX.++&o%$. .+Oo oX+X.oOoX..X@X.o# O X %XX+oXO  O@ .+ +ooX..X.  .XX...+X&&o",
"..o+oX+ X+ XO    +X ..OO# X ....o@O.   +Xo@+##+XX oXXXXXX.##..XXXX. %ooXo.OX.XXX.X+oX#o.O X %oXo... ++oX.+ +ooX.... ..X$o#+.&Oo.",
". .@+X+  + .XO .. O...OX$ o  .O@O   oX@O.OXoXo+O#$#.+O@#..XXX.X+ooXo%oooXOXoo.oooo.@$+.oo X &#$#X#@O..o..+.+ooXXX.+ +.@%#%%#@o..",
".. +@o@  o +@@..XO+++OXo& X  @#o    o#..+XX....XX...@XooXXoXoo+X+XX..@@oo+O.XX.X.. XX$XoX X %oXX#.X...XX + @%++XX.X+@+.XX..X#%.X",
".XO@o.+ .oOO#.+o#@.@@#*#@ OO+   o..O+..oX++O.ooXX.oXXooXoXXo++oXXo#X#XOoXXX ..oo..O@+oo.X.+ #Oo.OX.... o + &o$X++X.@.........%+.",
".oXOOoO Xo++++###$&%%$#+. +.  .XXoX+X.XXooX++++o++XXoXoX+++o+XXX&#+XX.X@@X.XX.o.XoOo..o.o.+ #OX.+X.... X + =ooo#XX+......X...o@#",
"X.XoX+@X . .        .o.   #oX .oXo O@.oXo+&&##$X.&+X+++ooX+XXoX#XXXooXOX+X.o.....@XoXXX X + @@o.++X...XX +.&oooX##X...X.ooo.ooO.",
"+oo+.o@  .XXXXXXXoXXXoOXO +#o..ooo.o#oX++XoXooo$#o#*Xo$$XX##&#o&+XoooXO.OoXoX.oo#+XoXooo+ +.++oXX@XX...X +.&oooXX$OX...XXXoO.XOX",
"o#OXX # X        ....XooO O.oO.X . oo+#oXXooXXoooX*$&$XX#$oo+*#$oooXXXXX#OXXo++@OoooXXX.O.#  @XX.#.XXXXX.O.&ooX@#O+....XX+.X.X.+",
".+.   # X ....XOOOOooooo@ +X.O.o.X.oX+@XXXOXoOo++OooOooOoooo+oo$$#XXooooo#$++@XX .OXX.oOOX@O.#X+$...X.Xo.$ =oo$OO#oX...XXXX..X.&",
"#@X XX% o  .XXXOOOOOOOoo# +oo.+X.XX+O+oXOooo+oOoooOoOoOOoO@+oXooooooXO@$#XX.o+@oooXXX...O+@+ $@+O..X..XX.+ =&$oO#O.X.X.X.....X..",
"+...+o$ o ....O+.XXOOOoo$ +o+O+OOOOO.XooooooXOOO+OO@oOOo+@+ooOooooX##$OOOOoXXO++o++++@@+++@O &O#o..X..oX.++X=XXo%XXX.X.XXo....#O",
"+ .X@O%.O.....X.#XXXOOOo% +&=@XXXXX+#OoXOoooXOO+OOOo+++Oo+@O++$##@&@@@##+@@+O#+@@@+#@+O@+#O  %$X.##.OOoX+#O &+oX#XXX......X.+OOO",
".+ X$O*.O.@#&&#  #..o@@o&.#O#o$%O+oO@@@o+OO++@@@#@@@++$#&*$$$%%%&*=*&%%#&&**$$$%**%$#$%$@+   &oX.X#oooo+X+O &+ooXXXX.oXX.O#Oo...",
"o.o.#+& +@.O.Xo.  ##$#@$=.@+#$$+@+*+#$#@+&###$#@%%+++++o        . .   .X     ..     ..      .=oX+++...OX. O &Ooo%X#$XooXX#%##O##",
"+%.o+o% + .X..oo. ##X+@%& .X++++####%%$++##.....     ..X$O@$&=*&==*%#@O$@@OO#&*==$O&O%$%$&#. &+++Xo#.#@XX O &+O++$+XX#$##..XX..X",
"@+$&$O%.#o.XX.Xoo#&OOo@+%          .        +OO@@&#=@$$##*$#*&$#@###+@#OO++@@##$%#$*&$$###*$ &oXooX%#&.X. O Xo+&&+o*#X+&+X.X...X",
"O$+$+@$.+...OO..&=++X+@+%  OOO#%&*O=*%###  +O%O*=O**$&$$%%$$%@&@$@+@+O+#+O+++@@+$@#+*@@+o+&* %oooo$#X#XoX O  .   XOo++X#++XX....",
"o&#@%#$ +...#O&&O@XXXX@@* &%@$@@$$&#+@#@&o.@%&&%$+@@&%O$#O@*+O+@#$+oOO+OXoXXOo++@O++#*%O@$%= &$X$$.ooX.o. O +&&## O+$X#XXXOO... ",
"++#+#X+ +O+..#&@X.++oooo= %O.o+OoO@XX+@&%O.@*$####@O+Xo@#o*#ooOO+OooOooOOoXoo o +#.O#+#%%%+& &o##..XXXoO  O.=oX#&% .#XX.X...oo  ",
"+++#++  +O.+%&XoO+o.+oO+& #  oXooo+.oO@=O +%@@@++++O@O.oX@XO&&oooooooOoOoOoo+@++o#+@O@@oO@@# %o$XO+XXooo .#.=o++#%%   +++##+##++",
"  .     +O+...o@@oOO$#$#=.@      X..XXo*o @%+#OOOoX.oX$oX#X$oooooooOOO%ooOOoo+$O+$+O+# ooO@$ &oXXoX+OXXo@+O &o.o#%O# .. .       ",
"%#%*%%& +O...XOo$O@@O$$@% +          Xo# O%@@@+o@o%@+$XooX$ooooOoooOo#oooooooo+$+%Xo#oXooO+% &OO..XXX+@+. O &o##X.@$X. X$%%%%$$#",
"+#$o+** +OOoO+@@@$+#$%@+   Oo+oo++ooO+   O*@#Ooo.@OXXoooo #oOOOOOooo$$$#ooo%$OO$OO&#.oXO+X#* %OOXoX++oooO O &%oX..%O  #%oooooooX",
"OO.#Xo*X#+@##$#%#*++        .     ..    o$%@+OXoXoXooOoo.@oOOoo%OXo@ooXX%oOOO*$o*%ooX.o+XO+% $+O+X.o.X.   O &%X+O..+  %oooXX#.X#",
"oXXX#&#+...     .    O#%###$$%%@$$#$*=&.@%#@OXXooooo#.#$#OOooo+##O#OOOOoX$X#*#++Ooooo++ oX+% @+@+OX.   O. O &%++.. + #ooX#&#.@@.",
"X. O%+    O&****%%*#$@@#@##@@@#@@###$%%.%&#@oo+O+oooooXXX%o$$#@oOOOooooO%o@#%@ooOOOOOoX..oo# +@++++OoXXXo + &=*.   + #$X#X.. O  ",
"O++O  O+O#+@@+O+++++++O#&+OOO+OooO+#$#&.#=#@+++OOooooooooooX@oOOoooooOoOoOo$ooOO++$+oXX .o+#+ +O@#++++++## . ++  +++  #+++++++++",
"    O&+XoX##%OOOOOOooOO%#ooOooOooOOO@$& +%++X+++oo+++ooooO%%OoOOoOo+oo+OOo$@OOO+@+XX..X Oo+@+          ....                     ",
"####.o##oXX+XXoXXXXXX #&. ..Xo+XooO+@%% @$+.ooOooOoooO+%O$OoOoooO+@+OO$*X#+oOoOOXO.. XXXOoO++    o#&==&%%**=&&&&%%&*=*&%%%$%%$#@",
"$@ooXXXX&$o#XXXXXo.#X%#o.X..O+oXX.ooo#* @$O.oOooo&$oOO%++oooXoooO+++o$$X%OoOOXOo.X.X.XooXOO#O  XO*$=$@#@O+$@@&&@+X@O@+ooOoOO.X.X",
"Oo++XXXXXX.X#$#X#O$%O  o.X.OXXoXX.XoO#= $##oXOO%$Oo+ooXOXoOOXooO@OOOO&ooOOOooX.oXXoXXXoo X+#% o&=#$+++$#=@$*&=%*$===@%=@#%O$o@@#",
"..o%OX.oXXo.XO$#+OX@+. .##.$XooXX.XOO#$ ++o.ooOooO+XXoOo+Xo.o++O@O+X$+++Ooo+ooXoOOoXoo++ o+%O *$#+X%#&+#%&*=#$#$@@o++OO$X+XooXoX",
"Xo.X&+X.XXo. XXXXXXX.@@O.X..@XoXXXXOO@$ +@X#$Oo++oXXXXXXo.OX+@+oO$#$Oooo++oo++oOOXooo++oXO+@# *O#%oOOX@X+#ooooO&+OXXoo.+XoXOXXoX",
".o..++@@XXOo XXoXoXXO.Xo.  .@Xo..XXOO+& ++. o+o..O...Oo.OO+O++o+%o+X%@OOooOoOo+OOXo++ooOX$+#O.=%OXoXO+O@O#o+XX@+%#O.OoooX..XX+..",
"O..O@Oo@+XoO.XXXXX+OX..XoX.+#Xo...XOO+& OO. O. X. ..Xooo#+O#&$%#ooooX+$OOOOoo+oo+++oooOo+o.+O.$O$##OoXo$$*&@OOOoX.@OoXoXX..XOO.O",
"+X@+oXXoOOXooXXXoXXXX...X.X. @....++OO& Oo. O   OoO@oo##o@$+OoooOOOOo.X%%OOOooo+++oooo+X.XO## +oo#O$OO@#o+#&@ooXXXO#@+Xo+.&=#..#",
"OXo@ooXXX+oXXXXXXooXX..XX. X.X&&#.+XOO$ OX..XoX.O$@O@@oOOO&OoooOooOOOo&%o%o%$ooo+OooXo. XX #.#+O @O...XXX..o$$X.XooOo@+#&@O.. Xo",
"o+Xo+XXXXoXOOXXXXXoXX.XXo+..&+Xo@$&XOo% oX.+ooOXXOooooooooOoXoooooOOO*%ooo$+o$%++$%ooXXo o % #X+#@XoXX.o.X.Xo@O.oXXoX#*#@+.   XX",
"XX+o#XXooX.X@+X+O.XXX.XX++&#Oo@O OX#O+% OX..XX+oOOOoOoOooX..XXOOoo+o%o+oo++++o+$$+o$$ooX .o% @+#+o..oo.XXOXX.X%OXoX@&X@$+X  . ..",
"Xoo +.XXOo.XXXXO++o+XO+&+%OOO++XO.Xo#@o X ..X.XXooooX..OXXooo+++++%ooooO+O++oooooo++&%$O#@%#.$OXO++$@OXXXXXXXX@oo . .#OO+      .",
".. O X.+#OXXO+XXoO#$@O.X@X..X+XOXXXoOO% . ...  XX....X+oo++OOXXXooX#oXXooOoooooo++ooX++.Xoo# oOXoO..O#$@oOXX.XXX @+O#ooXO..    .",
"..XO+#.#XXXOX.X##XoX@@@OXo+.+++..+X+OX# X  ...o    X.XXXXoOXXoo.XX.O.XXXXX.XXXo+XoXoXXXX..XO O+XX.... X.X. .oO+Xo#Xo.o  Xo  X  .",
"+O++.++.+.O...@.....X#.OX..OOX+Oo..XOXo ..     X        .X.  X.  .o.o.XXX.XXXXXXXXXXXX. OO.O .+@ .       .   .+@oo+X o.O.o   Xo ",
"#+++++OooOOXXXX.XXXXX O ..   ... oo.XX#   .oX+OOOoX .  .. .    ..X..o.    .......  X. o..Oo   o+o...X.OX oXX@OOooooOOXX.OooOXoOX",
"                       XXooOO++@@@$#@OO.             XoOOOooX..XoOOOOOoooOOOOOOoooX..  ..                        ..      ..     ",
"$$$$%*&**%%&%$@o  .oOo. ......      .  ..#+#%&=O&$$@X.                      oO.X@##$+#%#$#$###$##@+O++###++@++oo@O   X&%%%$*&##O",
"@#+#$#+@O%$$%##@ .+@$#$$#$##$%&&$$%&&%+ #XoO@@+OO+@##&O=&$Oo    .O@$%%%%%%$$$%$#+@@##@@@#$$##$###%@+#@@%####@@@O+%O X%#@@@@#+++O",
"XOOOX@O@O#O+$#@% O%@#@@+@+++@@@@@+@@@%& + o@#@+O@@+o++##$&=@  .X++##%@$#%*@$%%+++OO++@@+OO+@+@++OO+O+@O+OO+++++++O% +*@+#O#@+OOO",
".X++o@@oooX+@%$$ @#+$+@oOXOOOOOOO@++@$% +..oO+ .@.+.X+O+#$%O..o@##@%*@+####o+O+OOoOXOOOOOOO+OOOoOoOOO++O+OOo@+OX @&.=#Oo+.oOoX..",
"..X+@oo.+O+o#@@& +++@+++O+X@XOOOXO@O+@$ +.o.+. X+..  +Oo+@$=.o@$@@@o+XoX.Oo+O@#+$O+OoOXOoOXoXoooXXOXXoOOX#@OX@+O#@+ &@OXO..XoO..",
"X.@oo.XXX+o+++#%.+@#oXO++o..X+.  oO@+@O $Oo.@..@oo ..oO@###% O=&@o#O@@.@OOXoOXo+O XXXooXXoOooX..o...XXoXXoX#oo.@+.+ &OoX+o...O.X",
".X.@XXX .X.ooO@%.+O#oXXXO+oXXoOXoX ++$+ O.X o+@..X Xoo@.OO#$ #%#+@XooXOoOo#.  O. XXooooXoooXXX....X.ooooooXX#@oO X+ %ooXXoX...oX",
"...+X XX XX+oO@& OO@Oo.XX+XXoO+Ooo +X% .O...#oXO....@@.#@o@$X**++Oo@+@O ... Xo Xo....XoooXoooX...Xo.oo.Oo.XXo&@  .+ $XX. o@.X.OO",
".. .OO.X.  .O@O% oX@o +...O.oXoX XX+.$.O.O+#oo.X...@#.XoOO%oo$$o%++O$OXo.  .OXX.X.    .oooXXXXX XXX.XXXoOO$+&=+ X.+.$oX  .+o..XO",
"o. X XOX...Oo+O# X.oX@ . XoO..OXX  Oo@.#O$$@Ooo .O+. OO+o+#.@%#O+oXOooo   .X+.XoOXo... .XXXoX.. XoO.XO+@#$O+O.XoXo@.#@o. .X#X..O",
"oo. ...OXX++X+O# oX   O.o  O.. ... O.O #+ ..#@$O... X.o. +@o$%%$X.X oO X...X+.XooooOOOX..ooX.  .X+.o+X. oO+X.XOOoo+.#o#OXooO@oX@",
".oo. .X@+#+ XOO#O O     o. ..     oXX  OX. .oX.o.o.. .+o.$oo%%@OX..o. .X..XX.OooooooooOoo..X..XO+O..XX. .+oXOX +#+@X#oO+@XXX#O@O",
".XoX.X..X@OoXOO+O o   X    .        .X +..  O  O.oo.oXX.+$ +%#oX@OooO ......X+o+OXoXoooXXX..XO..X. ... #X++XO.O+ooO.#ooOOOXXX@+ ",
"..X....XXOXX..o+@X.XX+X.oX. ..XXoX.    Oo  ... X. .X ooo$XX#*#XXXOOOo@ ....XOO#O@@oXOooOXoo.    . XoXX..#$X+.oX+X.# #..oO#X.+#O.",
"X....oOoo.XXX oO+                      O.Xo.. X. ..... O# .%&#Xooo#OX#.....XoXoOO@#$@$+o+OOoo...XoOO&&&$@O+O......@ @ .XX+@oo@OX",
"...XO++o. .XoOoO@  #%&$#$$$%%%&&&&&*&%@OO. ooX.. . ..  Oo.@$&@O  $+o.  +...XXXXooXXXO@$###+@.oooOo&OOO.Oooo+Oo ..X# O .X++###+o+",
"O..++OXoo..X.X.o@ +#+. XXoOo+OoO+@@@@@#%$$+X.  XooXX..XOo.+$O+X OO@X.. XO+oooXXoooXoXXXoXoOoo+X++.O   X XXX$.oXO..#.@XXO##+O@Xo#",
"+ooOX..Xo.X..oX@@ &@ O+++oXXoOXXOX#OOO+@+@@@$%#oX.  oOXX .+%OXo.oXo.  X.#.%X...XXoXoXXoX..##@.O+#. .OX  XXX +$..XXO +o#OXX.o+.#o",
".+o X....Xo.oOo+O $XX@+O.Xoo+OOoo+@+Ooo@OXO@@$$$%&O@..   Xo#X X.X. o  .ooo#%&+XXXoXoXXXO@@..X#%$oXO++++XXX.  O$ooX+ O#OXX oOO.oX",
".+...XX...XOooX O % O@oXXXoooX.Xooo++XO.oXOO+Xo##$#$$&O@ XO&o X.X. o ...o**#+##XXXo$X+#+OX.XXo+X#&o+o.oX+.O #.OXXX+.oO.X.oOO..X.",
"O..... ..XOoXOX.o # +ooooOOo+oXoo+Xoo#@ooo.++o+O#$+@+@*$#.+&oX. X.oo.Xoo$oOooX.##X#.@ X.X....X..+##X+..+X##+X.@X.O+O Oo...X.oX..",
"O..X.. .X.OoXX  X # ++O+O+OooooX+XXXooX+O@+ooOo$#OX+#+@&#.+=O.... OOoXo#XOOXXXoo#$..+oXXX......X+ o$#@.XO.. . OX.X+O OOX.X. OXX.",
"  .. ..XXXO...  + $ O+oO@ooo++X++X..Xoo...X#X+%o+@XOOO+%& +$@ . ...OX+#o+.oXXoo#%#.ooo#....XX.O++. X...@#O....o.XX+O oOX  . oXO.",
"       .X.  .   X # O+OoO.Xooo#+....XXoXX.O#oX#ooOo.XO+$& #O  @@..O++o#X+oXXoX$XX#.o%##@.o o.#+oo@XX.XO+.+o+.XXo .oO OO.  .OOX.O",
" ...... . XX... . @.X@Ooo.XXX+OX....X+oX+##+++@XXX ...O#* +@ X ..o.OX#++..XXXoOoXX##..o.#O.o+oO+.+@.oOO.XXoO++OO+oo+ +#o. .@.oXX",
"               X  @.o+@Xo.++O+O...&.XoXo#+OOXXO+oX  .o@#% @O . o..OO#=+o.oXoXo++XXXX... .+##XX .Xo%o.XXX.X..+@oXX.o@  XXX  .  .O",
".XoooooooXO@O+OOX +.Xo+Oo+#OOXX&o.+..o@@OOXO.. o@ .  oO#% +# .ooooO&=&#.XXXXXXXXOoX....oO+.XXXX...X.XXXXX.o++++O@++@            ",
"++@#$$$#@#$$%%$+X O X@OXO$%$X#XX..X.#+.#XX.XO+##+Oo.XO@@% O#XOo.O+%*+O@+XXXXo...+O...XX+$OXooXX.O..XXXXXXo+.oX.X+.OO .$$%%&==%@#",
" X..oO+@#$#@#$&$+ O++ O.@..OoX....X@oo...o.##*+X+O+#+#+$$ +@X#X+.#.Oo.o.X#X..XX.X+#@+@*$XO.ooXOO..XX.XOX+ .... .. o#.&@###@#++#O",
"Xo   .ooXoO+++@$# O .OXX..XoXXoo..#OXX..X.oooXoX+XXX.o+@#.@&.X+%#..@...#X@$XXX..X..o#&X.Xooo++OX.XX+O+X.. ....... oO.*@+++O#.X+.",
". OooXX. oXXO+O@$ @ +@.XoXOXo@+o.X@XXo..XXoXXXXoo++X@#O@# @O#X%+. +o.....X@$@O .XX..#o+..X+OXXooOo+OooX.  ...X  o.o@ *#+X.+*o..O",
"X.  X..Xo+O+O@@+&.$XO XooOooOo@+++X.XXX.XoooooXXX++@O#oO@ +X +OOo#+....X##oX +@$@o#$%+ o.+X.Xoo..ooO+oX..XXXX. OX XO %oo..%OXX.+",
" X  . oO+o.XoO@+* @+..X...XXXXXOOXOOooXXoXXoXX#++#XoXO o+ OX  ..@#oO..#.+...#.XXXOoo+@..+X...+..Xo...++X X...X.oX XO $X+X@#X#...",
"X  oOXOO X.Xo+X+* O ..XX.oXoXooOooXOo+X.XoXXX++$#X#$X.XX+ +.  ..X++  . ##@....ooO... #@oO.X.X...XX...XX .... . .  .O.#+O.$+o++ X",
"X.oX   oo.XX.o+X# OX.XXX.....XOXXXoXoX.OO++o+X#XXooXO#Xo+ OO.X...Xoo@&+Xoo..X X+ .. ..#.O+X.+X ..oX.... ..X    o.  + @+X.$o OXOo",
"Xo.    O.  o o+o# + oO +X.XXXX.Xo..oXX...Xo.X#XXXXoX.++O+ @+.  ....% +oOO$OXoXO+oX  ...&O..O.. oXXX.X. ...  .    oX+.+o@#.. .Oo ",
"XX.   XX  .XO+o.$ @ .XO...ooXOoo.  .Xo.XXXXo.$#XoXXXXo.OO OXO  OoO X..oooX.Oo##+.XX++ o$O....  .O..      X.    X ..O o+oOXOXXoX ",
"..oo .X.  XOX X @ +  X.X.XoXX..    .oo.XXX.o #XooXXXXoo+o.+++oO . X XXX. O.o o  ..   +O  +O   . .oO                O .X .+...XX ",
"....o..X. OX..XX+ O .  .   X.        .XXXX O@ XXXX..XXXOX XoooOoXXX   .o.   o  X ...+      X      .OO+             O ..X.. XX. .",
"   oX .XXOo...  OXOX                 ...X.+@XXXXXX    o    OOooOoo.oOoooo.  .      Oo.    o   O       OX .    O  O   oX.   .X  o",
"OooOoooooOXOOXoX  OoOOOOOOOOOOO+++++OOOO++OOOOOOOOOOOX      oXXXX@+oOXXXXoOOOXXXXXXXOoooOOOOooOoOOOOooO+O@oXXXO.oo     ..  . X ."
};
