/* XPM */
static char *result[] = {
/* columns rows colors chars-per-pixel */
"128 96 14 1 ",
"  c black",
". c #1C1408",
"X c #1C0414",
"o c #2D2410",
"O c #3D3514",
"+ c #310820",
"@ c #491431",
"# c #611431",
"$ c #791C35",
"% c #494114",
"& c #4D5118",
"* c #902431",
"= c #A82D31",
"- c #C04135",
/* pixels */
"                                                                                                                                ",
"+++@@@+++++@+++++++#X++++++++@+++++@@@++++@@X++X++@@@@++++@@++++@+++X++#++++++@++@# ++++++++@+++++@@@++++@@++++++@@@@++++@@++++@",
"##$#####@@@++@@+@+@$X+++@+@@++@@@#####$#####@$#*=****###$$$$$###@###+###@@@#@####@#X+++@+@@++@@@#####$######$$==****###$$$$$###@",
"##$$$$$##@@@@@@@@@@$X++@@@@@@#####$$$$$####$$*$*******==*=*$$*$$$$$$#$$$=$$$*$$###$X++@@@@@@@@@##$$$$$####$**********==*=*$$*$$$",
"$####$$######@@@#@@*X++@#@########$$####$$$$#$#$$$*$$=**=$***$$$=$$$#$$$$$$$$$$$##$X++@#@@@######$$####$$$$$$$$$$*$$=**=$***$$$=",
"$$$$$$$$###$###@@@@*X++@@####$###$$$$$$$$$$$##$$$$$==****$$$****$#**#*$=$$$$***$##*X++@@@#######$$$$$$$$*$$$$$$$*$==****$$$****$",
"*$$$*$$=$########@#*X+@@##$#####$=$$*$$$***$$$$$$*********==$$$$$#**#$*$$=$$***$##*X+@@########$=$$*$$$***$**$$$*********==$$$$$",
"$**$$$$$$#*###$$#@#*X+@##$$###$#$$$$$$**$==*##****$***====****=*=*$*#$**==*$$***$#*X+@@#$$###$#$$$$$$**$==*$$****$***====****=*=",
"****$$$$*$##$$#$###=X+@#$$#$$##$*$$$$*$$*===$$*****$*###****===*=$**#$$*===*****$#*X+@##$#$$##$*$$$$*$$*===**********$#****===*=",
"**=*=*=$$=$$$$$*$##=X+@#$*$$$$$=$$=*=*-$$=-$***$$$$==$*$*=====-=*=$$#***==$==*$$$$*X+@#$*$$$$$=$$=*-*=$$==*==*$$$$$***$*=======*",
"******$*$*=*=*==$##=X+@#$==*=*=$$*#***$****=$*$=**--$$*-==*=*=$====****$$$$*==$$#**X+@##==*=*=$$*#***$******=****$**=====*=*=$==",
"**$$$$$$$$$******$#=X+##******$$$$$$$$$****==*-*=$**$$=******$$*=***$==$$$$**=$$#$*X+@##*****$$$$$$$$$****$$$=****==********$$*=",
"******$***=**=*=****X+$**=*-**=***$$$****==-$****$#$$=*==*=**=*=***=$=*=$$$=**$$#$*X+$#*=*=**=***$$$****$*****==*==*==*=*=**=*=*",
"$***$$****$=**==**$*X+#**==**=$****$$**=******##$$$**=*=-=**-$**-=$$$=*$$$=**$$$$#*X+##*==**=$****$$******$$=-==**=*=====******=",
"=*******=**$***=**$=X+#**=***$$*-***=--=*$##$*====*-**---***$$**$$$$$*$$$$**$=$$$#*X+##*=***$$*=*************==*=**===********==",
"***=*****==$==*$$$$=X+#$$$*==$--**--**$$*$$$$==$*=-*$$$$$*==$=-$$=*=$=$$=$$$$$*$@#*X+#$$***=$=-***********==*$***$$$$$*****===**",
"**=****$*===*****$#*X+@$*****==-*==$$###$===*$$#$*=-=*******-==*$$*$#$$*$##$$#$$@#*X+@$*****==-*$****-****==***$#******=**=====*",
"==*****$*===*****$#*X+@$***$$*=-**$$$$$=*-***$*$#$**=-=***$$*==$**$$#$$$#$###$$#@#*X+@$*****==-*$****===*-=*==*$$****==****=====",
"====**=**==******$#=X+@#$***$$=$$*$$**#$$$$$=*$**$##$*-$$$**$***$$$*#$-$#####$$@@#*X+@$****$*==**=**-==-**=*===*******==*=**===*",
"*==**$*****$$***$##=X+@#$***$$$$-$*$**#$****$##****==$$$$$$$$$$$$$$$#$$###$##$@@@@*X+@#$***$$********==-***===****==**$***$**$**",
"********$$$$$***$##=X+@#$$$$$$$$$$$$$$$=$$$**##=**=$$*$$$$$$$$$$##########@@@@@#@@*X+@#$***$$$$**=*******$$$******==*$$$$$$$$$$$",
"$*$$$$$$$$$$$$$$$##=X+@##$$*$$$*$$$$$$$$$$*$$#=*-=**********$####$$$$###@@@@@@@@@@*X+@#$$$$$$$$$$$$$$$*$$$***********$$$$$$$$$$#",
"****$$$$*****=**$$$*X++#####$#####$$$$$$=$$$$@$$$$$-$$-==$#############@@@++@@+@+@*X+@##$$$$###$$$$$$$$$$*$$****$$$$$$$**$$$####",
"===*==============**X+##$#**$###*=---===**==**=*************==---===*-*******==**##X+@**==*$$$$$*--==.O.%O.==.**.*$$$*===***====",
"++++++++++++++++++++++++++++++++++++++++++++++++++++++++++++++++++++++++++++++++++++++++++XXXXXXXXXO%.&%.&%.OOOX.o.O..XXXXXXXXXX",
"***==****====***##@##@###$**$$$$$*$$$$$$=*+XXXXX++@@#$**$*$$$#=**********=**-==*$$#***=***===***$$**$$#%*O.O..OoO..**********=**",
"##$$$$$###****==$$##@@##$#####@@@++@@+@+@*+XXX++@@#$$*$$###$##$$*$$*=*-=*******$$$#@#+@#$$$$##@@@@@@@@@@.%&.&O@@$$$$*$$$$$$$$$$*",
"$*$$*=*==**********$@#@#$$$$$##@#@@@@@@@@=+XX+@@#$$$$$$$$##$##$$$***$=**=$$*$$$$$$###@@#@#$$####@@@@@#@@*.O@.$@@$$$$$$$$$$$$=$$$",
"$$***$=**=$$*$$$$$$$#######$$######@@@#@@=+X+@#$**$$$$-$*#$###****$$$****--$$$$$$$$##@###$$$$###$##$@@@@%O+.#$###$$$$=$*$**#$***",
"***$$$****==$*$$$$$$####$$$$$$###$####@@@*+X+#$***$$=$$*$#$###$$$$-=*********$$$**$$$###$*$$=$#####$$@@#*..@#$#*#$$=$$*$$**#$$$$",
"$$$==*********$$$**###*#$$*$$=$#####$#@@#*++@$***$$*=-**$$###$$-****-=--***$****$$***@#$$$$$$$#$###$$#@#*%+@$*#*#**==**$$*$*=*=*",
"=****====***$****$$##$$#$$$$$$$#$###$##@#*++@$*****-==*$$$$$#$*-=-****$#**$*******==*#@#*$$$$*$##$$#$$@#* .@$*#*#*===*$$$**$=*==",
"===****#$**********$#$*##*$$$$*$##$$#$###=++#$$$*--$==***$###$-=----=*#***$$$$$*==$=-@#-*=*-$$=$$$$$*$@#*O+#$$@*$=$==***$$$=*===",
"======*$***$$$$$*==##$$##*=*=$$-$$$$$*$##=++#**-***$$*-***#$$$=$$#****==*=**===***$$*##$$$**$$$$**$=$$$#*.+#$*#*#*$$*=***$***=##",
"$=*=*=====**$****=*$$**$#***#*$$-*=*=-$##*++#**==**-$****$#$$$$***=**--=-**=*=--**=$*#*-$$*=*$$$=**$$$$#*.+#$*$=#*=$****$$***$**",
"$$********==****=$$$$***#$$$$$$$$******##*++#**=*-**=***$$#$$**$$******-=*=-*==*=**=*=#=*=*=*=$$$=**$$#$*.+#$*$=#**=***$$$****##",
"*=**=*=*==*==*==***#$$*##*$$$***-**-*=***=++#$******$$$$$$##$****-****=****==******$$$$==**=-$$$$**-$$#$*X+@$##*#**$$$$$$$$$****",
"$$*=***$***=###****$=*-##=-=****$$**=-**$=++###==*=*-$$*#*$$$****-***=*******==-*-*=$$$--*=**$$$$*==$$#**X+@#@**#=*=$$*#***$****",
"$==***$$$=*=======*$***$#$$$*=-=-$=**-**$=++@##*$$$$$=$$=*=$=$$==$--*$$$$$***#*-====-*#*$$$***=-$-=*$$$$*X+@#$$$@$$$=$$=*=*=$$==",
"===*******$**##****$-=*#@**$$$*==-*****$#=X+@##$#$$##$*$$$$$$$*==-*******$**#$****===$$#**$$$*=-=*****$#*X+@#$$$@$##$*$$$$*$$*==",
"==*$$****$*#*====**#*-*#$#*$$**==*$$***$#=X+@@#$$###$#$$$$$#**$==*$$****$***==-=****=$$*$*$$**-=*$$***$#*X+@@#$$##$$#$$$$$$**$==",
"**$**$$$***#*****=*$$$$$#$*$$*$$=$$***$##*X+@@##$#####$=$$*#$$***$**$$$*********==$$$#@#**$$*$$=$$***$##*X+@####$$$$$$$$$$$$$***",
"$$$$$$$$$$==****$$#$***$@$*$*$=$$$$***$##*+++@@####$###$$$$@$$$$$$$$$$$$$-=****$$$***#@#**$*$-$$$$***$##*X++###$$#$###$$$$$$$$$$",
"$$$$$$$$$*$$=**=$*$$$$$-#$$$$$$$$$$$$$$##=+++@#@##@@####$$#@##$$$$$$$$$$*$$=**=$***$$@*$$$$$$$$$$$$$$$##*X++@##@#####$#$$$###$$$",
"##$**********==*=*#$*$$$#$$$$$$=$$$*$$###=+++@@@@@@@@@##$$$@$####$**********--*-*$$*$##$$$$$$$=$$$*$$###*X++@@X@@@#@@##$$$$$####",
"@@@@##**$$$$@@@###@#@@#@###@###@@@#@####@*++++@+@@++@@@####+$######$$==****&##$$$$$##@+###@###@@@#@####@*X+++XX@@++@@@#####$####",
"+@@++++++@@@@++++@+++++@++++++#++++++@++@$+XXXXXXXX+XXXXX++XXXX+@@++++++O&@Oo+&o@%O+&%@O+o+++#++++++@++@*X++XXXXXX+XXXXX+++XXXX+",
"XXXXXXXXXXXXXXXXXXXXXXXXXXXXXXXXXXXXXXXXXXXXXXXXXXXXXXXXXXXXXXXXXXXXXXXXoOoo%O.%O&o&Oo%.OXO%.XoXXXXXXXXXXXXXXXXXXXXXXXXXXXXXXXXX",
"=====**$$#*$$**$*$*=X@@##$******=****$$########$**==--*$######$*==-===-===--oo*oo%.o.o&O*o*o**o******##$@###$*$$**=**====*******",
"##$$$$$##@@@@@@@@@@*X++###$#$###$$$#$$$#######$#$$$=-=-==####$$$$*$$$$$###@@##@#oOo&O@oo$$*$$$*$$$$$####$$@$*=*==**********$####",
"$##############@#@@=X+@##$$*$$$=$$$$$$$######$$$==*******$##$####$$$$$##@@@@@@@@@o*X+@o$$$$$$$$$$$$$$*-###$**$=**=$$*$$$$$$$$$$#",
"$$$$##$$###$####@@@=X+@#$$$$$$$$$$$$$$##$###**$=**-$$*$$####$$$$####$$####@@@@@#@@*X+@#$***$$$$=$*$**#$##$*$$$****==$$$$$$$$$$$$",
"*$$$*$$$$#####$##@#=X+@#$***$$$$=$*$**#$###$$$$****==$$#$###$$$$$$$$$$$###$###@@@@=X+@#$***$$=$$*$$**#*##$$==*********$$$**$***$",
"$**$$$$$$#$###$$###=X+@#$***$$=$$*$$**#$#$#$==*********#$##$$$**$$$*$$=$########@#=X+@$***$$*==**$$*$*=###$**====###$****$$*==$*",
"*$$*$$$$*$##$$#$$##*X+@$***$$*-=**$$*$*$###$**-===***$*#$##$#=-$**$$$$$$#$###$##@#=X+@$*****=-=*$$$**$$###$****$##*$#******===*$",
"$$=*=*=$$=$$$$$*$##*X+@$*****===*$$$**$$#$#$****$$**$**#####$=-*$$*$$$$*$##$$#$###=X+#$$$*=-$==***$$$$$###$====-$**-$$$$*==$==$$",
"*$$$$**$$$$**$=$$##*X+#$$$*=-$==***$$$$####=-==*$$**$$$$$$##$-=$$-*=*=$$=$$$$$*###*X+#**=***$$*-***$*$$####***=-==-=*===***$$**$",
"*==*****$$$=**$$$##=X+$#$$==*$$$$**=*==$##$*=*=-=******$$$*#-****$***#*$$=*=*==#$#*X+##*-=**=$****$$*#$##$$=**==--=*=*===**=$**=",
"=*****==*$$$=**$$#$=X+##$$=**$$$$==***$$#$$******=-*****$#*#=****$$$$$$$$$******$#=X+##*=*=**=***$$$$$###$$*****==*==*==*=**=*=*",
"*=**$*==*$$$**=$$#$=X+##$$**=$$$=*=*=*$###$**=*==*==*==*$#*#**#****$$$***=**-*=***=X+##******$$$$$$$#$#$#$=****=****==******$$*=",
"===$*****$$$*==$$#*=X+@#$$$**=$$$*=*$$$#*##-**=-=*=**-=$$$*$$**$***$$****$=**==**$=X+@$$==*=*=$$*#*$$$#$#$=***=*******===*=*=$==",
"=*$******==$==*$$$$*X+##$$=$**$$$$**$$$###$$***-==**=***$$*$#*#=***$***=*$$***=**$*X+@@$*$$*$$=$$=**$#$$#$$==*$$$$$***$*=======*",
"*=$**$$**--=*****$#*X+###$#$$##$*$$$$*$$###$*******$****#**$$==*=$**$$$*===*****$#=X+@##$#$***$*$*$#$@$*#$-*******$**$$****===*=",
"*=*$*$$**-=******$#*X+@###$###$#$$$$$$*$###$$$****$****$#=**#*=*-*$*$$**==*$$***$#=X+@###$#$$*$$$**$##*$#$*$$****$***====****=*=",
"$$$$$$$****$$***$##=X+@###$#####$-$$*$$$*#*$**$$$******#$*-*#$$$$#**$$*$$=$$***$##=X+@@##$#$##$*=$**##$**$#**$$$*********==$$$$$",
"*$$$$$$$$$$$$***$##=X++@@####$###$$$$$#####$$$$$$$$==*$##$$##***$#**$*$=$$$$***$##*X++@@##$#$#$$$**$##$$$##$$$$$$$==****$$$****$",
"$=$$#$$$##$$#$$$$##=X++@##########$$######$$$$$$$$*$$=#@$$*##$$$=$$$$$$$$$$$$$$$##*X++@#@#####$$$$$##@#$$$#$$$$$$*$$=**=$***$$$=",
"$$##$$$$$$$$###$###*X++@@##@@#####$$$$$####$**********#@#**$#*$$$$$$$$$$=$$$*$$###$X++@@@@@@@####$$$######@$*********==*=*$$*$$$",
"#@###@###@@@#@####@$X+++@+@@++@@@#####$######$$==****$#@$$$$####@###@###@@@#@####@$X+++@+@@++@@@####@#####@@$$==****###$$$$$###@",
"+@+XXXX+#++++++@++@#XXXXXXXXX+XXXXX+++XXX+@@++++++@@@@+X++@@++++@++++++#++++++@++@#X++++++++@+++++@++XXXX+XXXXXXX++++XXXX@@++++@",
"                    X                                                              X                                            ",
"**********=***==*$*-===*##$$$###$##$$#$##* @@***====***********==$$$$$***=======$*===***********$$**$*$$$ $$$*$**$$***==========",
"#@@@++@@@@@#@@++#@@@++@@@@@#@@+++++++++++% X+@@##$###$###$###$##############$$**$$#@@@@#####@@+++++++++@% oX+++++++++@@#####@@@@",
"@@@@@@#@@@###@@@@@@@@@#@@@###@@@@+++++@++% o+@#######################*###$$$$$$$######@@@@##@@@@+++++@+@& oX+@+++++@@@@##@@@@###",
"@@@@@@#######+@@@@@@@@#######+@@@#@@#++++$ o+@#$$$####*#$$####*#$#$$@#$$$$$$$$$$#############@@@#@@#+++@% XX+++#@@#@@@####O#####",
"@@#@o#$###%##O#@@@#@o#$###%##O#@@@@@##++@% %+@#$$$o#*##$$$o#*##$##$$@###@@$$####o#@%#####$##*#@@@@@#o++## o+++##@@+++@$@@#o@@###",
"#@O#$$#$o###o##@#@O#$$#$o###o##@#@@@##@+@& o+#$##%@#$O#%#%@#$O#%@@#%#$O$#@@@#$$$@@O$$%#$######%#O@@##@+#% o++@##@@@OO###O##$$#O*",
"###$*%$#O$#%##%####$*%$#O$#%##%#@%#%@#O+O% XO#$#%##$$%O@%##$$%O@@%##O$OO%%O@@%+%#oOOOO@O$##%#$O@O##O##+#& %+O#O@##@+@#@@OOOO@#oO",
"OOO+$OOOO$O%OOO%OOO+$OOOO$O%OOO%%%%oO%OO%&.O@#o%O%%@$OO#O%%@$OO##oo%OOOOO$OOO@OO$%@O%@%%$OO%##*#OOO#%#+O& oO+#$##OOOOO@OOO#OOO$O",
"@OOO%O@oOOOOO+O%@OOO%O@oOOOOO+O%%%%Oo@O%%& oO#OOO##%O#O@O##%O#O@OO%OoOO%%+O%OO%%#OO%O%%OO%%OOOOo#%OOOOOO&.oXoOOOO@OOoOOO#OooOOOo",
"OOOO@%O%@%OOOOOOOOOO@%O%@%OOOOOO%OO%OOOO.&.oOO%O@OOO@OOO@OOO@OOOOOOOOOO%+OOO+OOOOOOO@%O%+%OOOOOO%OO%OOOO%.%OoOOO@OOO+OOOOOOOOOO%",
"OOOOO%o%OO@OOo%OOOOOO%o%OO@OOo%OoOO+Oo%.O%.OOOO%O@OOOOOOO@OOOOOOOO@OOOOOO+OOOOOOOOOOO%o%OO@OOo%OoOO@Oo%.o.OOOOOoO@OOOOOOOO+OOOOO",
"OOOOOOOOOOOOOOOOOOOOOOOOOOOOOOOOOOOO%OOO.O.%.OO%OOOoOOoOOOOoOOoOoOooOoOOOOOoOOoOOOOOOOOOOOOOOOOOOOOO%OOOO.oooOOOOOOoOOoOoOooOoOO",
"OooOOoooOoOoO.O%OooOOoooOoOoO.O%oOooOOoO.&.Oo.ooOO@ooOOOOO@ooOOOoOOoOOOOOO@ooOOOOooOOoooOoOoO.O%oOooOOoO..ooo..oOO@ooOOOoOOoOOOO",
"oOOOooooO@oOOOoooOOOooooO@oOOOoooOO.oOoo.O.ooooooooOooOooooOooOoOoo@OO@ooooOooOooOOOooooO@oOOOoooOO.oOooO.o.oooooooOooOoOoo@OO@o",
"ooooooo@ooooOo.oooooooo@ooooOo.ooooo.Ooooo.ooo.OoooooOoooooooOoooOooooOooooooOooooooooo@ooooOo.ooooo.OooO.O.oooooooooOoooOooooOo",
"oo.Oooo.oooo.oOooo.Oooo.oooo.oOoooooooooOO...ooooooOooo.oooOooo.oooooooooooOooo.oo.Oooo.oooo.oOooooooooo%....o.ooooOooo.oooooooo",
"oooooooooooooOoooooooooooooooOooooooooooOo.oOooooooooooooooooooo..oooooooooooooooooooooooooooOoooooooooo&.oooo.ooooooooo..oooooo",
"oO.ooooooo.oooo.oO.ooooooo.oooo.oooo.oooOo.o%Oo..ooooooo.ooooooooooooooo.ooooooooO.ooooooo.oooo.oooo.ooo%.o..ooo.ooooooooooooooo",
"oo.oooo.oooooo%ooo.oooo.oooooo%ooooooooooO.Oo%o..ooooooo.oooooooo.o.o.oo.ooooooooo.oooo.oooooo%oooooooooO.ooo.o..oooooooo.o.o.oo",
"ooo.oooo.o.oo.ooooo.oooo.o.oo.ooo..ooooooO..o.o.oooo.o.ooooo.o.oo.oooo..oooo.o.oooo.oooo.o.oo.ooo..oooooO.o.o...oooo.o.oo.oooo..",
"%ooo...o..ooo.OO%ooo...o..ooo.OOo..oo....O.oo..o...o...o...o...o.o.........o...o%ooo...o..ooo.OOo..oo.....oo..o....o...o.o......",
"ooO.oo..........ooO.oo.................ooO.oo.o.................oo.....o........ooO.oo.................o..ooo.o.........oo.....o",
".o.O.....o.....o.o.O.....o.....o.%..o.............Oo...o..Oo...o..........Oo...o.o.O.....o.....o.%..o...O......o..Oo...o........",
"..oo..........o...oo..........o.......O.............................o.............oo..........o.......O.....................o...",
"................................................................................................................................"
};
