/* XPM */
static char *e0bcf3f4384b4f58ef0263bbfc1996dd42yV5dSfj3s2AVMx[] = {
/* columns rows colors chars-per-pixel */
"128 94 13 1 ",
"  c black",
". c #0C0408",
"X c #201018",
"o c #351C28",
"O c #452439",
"+ c #593145",
"@ c #693D55",
"# c #7D4565",
"$ c #8C5171",
"% c #A0597F",
"& c #B06590",
"* c #C4719C",
"= c #D979AC",
/* pixels */
".XXXooooOooooO+OOooo  oXXXXXooooXXX . XooX++o  .ooOOoO++OOOOOOOOOOOOooOOOOoXooXX.  OX++oOOooooooXXX Oo OOXXXXX..XXXXX..  ooXXXXX",
"      OOXO.  o.@@.X.X o     ...X.+O. o .  .X #%%$$&%%%$%%$$%&%$@$$$*&$#$$##$#@+O+oX O@oo@OXX.o.X.  O   oo.. o.       ... oo     ",
" .......X%.O$ o...XXo X  +@@@@@++X@$    X   $*$$$#@#@##@##@###@+#@+##++@+O+O+O+OoOoX .  X  X o. X  O   OO.ooX .oX...oo X oXXXXX.",
"O#@@#+@+&%%o#O+.+.Xo+ X +%%@+XoX.X@% X o   @%+@+O@+OOOOoo@OOOO@OoOoOO#+oOoOOOOo@@OOoX X . . . .XX.O Xo #Oo+o  .X+..  XOo XXoooo ",
"...X...o+.. . ..###$+ X O++oX  .oXX#.o X  @$@O@O+#++ooO+++@X+O@O++o+O@O@+o+oo@$#OOoOoX    .+Xo X  +X X #O+@. +.Xo  . +#+ X Xooo.",
"......oo...  X##.XX$+ XX   X  ..XXo* X   @$+O@Oo+@@Oo++oooO++@Oo+@++@Oo+#+O+##Oooo+oOoX   oOo$@ .X ....#@OO.OooOO+X O%+o . .XX  ",
"&.XX+OO..XX  #X..XXo+ o@O..X X...++#   @$$+OOo@+o+@OOooOO@+X+o@+o+++o@+o@+@#+OOO@@o@oOoXX   @+++#.XX   #@oooX .%.++#O.+X . .   .",
"o&&X+.                              @$$#@+OoooXOOO@OOOOO++ooooXOOO+ooXOOO$#+OOO++oo++ooooXX.                                X. .",
".oO&. #&%$##$$$$$$$$$$%%#$$$$$$$##$$###@OOOOOOOoooO@O++@oooOOOOoooOOOOooo$@+O++oooOOOOOOO+@@@+#$##$$#$%$$%%###$$#$##@+@+O. o+o..",
"..o@# *%##@##$@##@+++#+@@+@@#@@$#@@+++oOOoOO+OO+Ooo++@oOOoOO+OO+Ooo+OO+Oo@+o+oOOoOO+OO+OoO+OO++@+O@+OO@O@O++O++#@@##@++ooX +@. .",
"X.%#X &#++Oo@oXO+ooOOOOOOOO#Oo+@ooO@OOOOOOo@oXO+oo+@+OOOOOo@oXO+ooOoXO+oo#@OOOOOOo@oXO+ooOOOOo@oo+@ooO+OOOOOOo@oXO+ooO+OoX @+ ..",
".+%.. &#+OOOO#O@@+oXOOOoOOOO#@#@+oX@OOOoOOOO#O@@+oX@OOOoOOOO#O@@+oX#O@@+oO#OOOoOOOO#O@@+oXOOOOO#O@@+oX+OOOoOOOO#O@@+oX+OXX o@OX.",
"#@o.. %%@ooooOOOo@@O+o#OooooOOOo@@O@@X@OooooOOOo@+O++o#OooooOOOo@+OOOOo@++#+o#OooooOOOo@+O++oooOOOo@+O++o#OooooOOOo@+O++oX OOXo.",
".Ooo. &+@oOoooooOOo@OOoOoOoooooOOO@++OoOoOoooooOOo++OOoOoOoooooOOo+oooOOo+#@OoOoOoooooOOo++OOoooooOOo++OOoOoOoooooOOo++OoX XoX.X",
"XOX.O &#O+oo+oOoOOoO@OOO+oo+oOoOOoOO#OOO+oo+oOoOOoOO+OOO+oo+oOoOOoOoOoOOoO+#@OO+oo+oOoOOoOO+Oo+oOoOOoOO+OOO+oo+oOoOOoOO+XX .+oo+",
"+.X.X &#++OO+@+OooOO@@O++OO+@+OoOOOO+@O++OO+@+OoooooOOO++OO+@+OoOOO@+OoOOOO+++@+OO+@+OoOOOO++O+@+OoOOOO++O++OO+@+OoOOOOOXX XXO#o",
"&.X.. %@Xoo.oooXXoX.Xo+.XO.oooXXoX.X.XO.XO.oOOoooXXoXoOXXo.oooooOooOoXXoX.X.XOXXO.oooXXoX.X.X.oooXXoX.X.X+.XO.ooOooOoXoXoX   .+.",
"..X.. #O..OXXXXOX.X.XXX..OXXXXOX.X.XXXX..OXXXXoXXXXoXXXXXXXXXXooXo.XXOXXXXXXXXoXXXXXXoXXXXXXXXXXXOX.X.XXXX..OXXXXOX.X.XXXX X X@#",
"O#....                                                                                                                    o+...+",
"OOO+.X..X. %%%$%$$#%#$#@@#@@@@O X$%  O#+@O+@#+@@@+#O+@@+##@@@&@##$++O@+oO+++oOOO+OOXoooOXoO#+XXX %%%$@$@#%#$#@@+$@@@O XO.%O@X. +",
"...oO#O.X. %#@++++O    O+++++OX Xo&   +@$%$#$%**%$$$**&&#%%&*=*&%%%$$$*&#$++@@@#@@@++OO+o@@@Oo+O %#@+o.$@++++o.$@++OX @+.*O$X +.",
"##O##%#XXX *@+OOOo .ooo.O+ooOo. Xo=.      ..     ..     X.   . .        o+++++%%@#$###&+@#$#+*+@ *@+OOX.$@++o.$@ooOo. $@ &+#.o.o",
"X..XX..#@o &#+OOOo o$ o#@@+oXX. ++& .#&$%$%O&O$==*&#OO@@$O@#%*==&*=&$@O$X..     .....##++$%%#### &#+OOOX.%@O.$#O+oXX. o+ %o+o.%+",
"X...X.X+&+ %$++o#o X@.O$Oo@+Oo. Xo& $*###$$&*$#%$##@@++OO#@+###@#$&*#$*##$$@=#&@@OO+        .    %$++oOOX.$.@#Oo@+Oo. @#.%O$&$+@",
"....XX++#@ #@+O  Oo oo$@o .o+XX oo% *&+o+@@*+#@$+@@+++O+#+O+@+@$@&@%$$%%$$&$**O=*O%O+  ###%*=O*& #@+OOoOoXO.$@oOOo+XX o+.$@+$+$O",
" ...OOXXX@ $#O+ .  oooo  .#oOOo X$& =%$@O%*#++O@++oOXXoXO+OOo+$#@+O+*@O#$O%&@@+$%&&%@.o&@#@+#&$$ $#O+OOOOXX+@@oOOoOOo o+ $#%@#&o",
"  oo...Xo+ %#O+ o+#+o%$@+o#OO.X #o& &+%%%#+#O.#+ o ooXoOOooOooO+OOoo#*o#@oX+O@####$*@.O%&@+XX@Oo %#O++OOo oo$@OoOOO.X ++ +X#+#++",
"++##+##++o &#Oo.@oO+ $@+O##OoX. $o% #@@Oo@@O@+#o++@+ooOoOoOooooooo&&OX@Xo.O@O++++@@@%+ O=@Oo.+oo &#OoO@o XooO$+O+OoX. O+  ++#+++",
"       . . &@OOOOooO #@O@OoOoXX Xo& $@Ooo #+O+$+O$+ooOOoo%OOOooooooo$X#Xo$Xo.XoOOO#+%@ o*oXX..X  &@OOOO.XoX+OO$+oOoXX O+     .  ",
"#$$%%%%$oX %@+ooO+o .+#+@O++oX. OO& %+OooXo#oX%+$+oooooooo#oOoooOoooo$XooX$+@%o@o+@@@%O #oX      %@+ooO.o.oX#o%@++oX. O+ &%%*%#%",
"Xooooooo%O &$Oo++oo XO$@Oo+@+.X OO% *#X+OXo.#&OO$OO$%ooo#$$$oooOOOOOo# ooooXXO@.ooO#@*O   +Ooo++ &$Oo++.o..X@O%@+@+.X OO **+o$#+",
"#X.#XXoo++ $#OOooOo Xo$+@+o++Xo O+$ %+OX+o.Xoo%*o$*OOOo%XXoo@oXO%ooOOo@.ooOooXoXoXO+@%$o    ..   $#OOoo.XooOO+%@o++Xo oOX*oX#.OO",
".@@.#&#Xo+ %@OOOOo  oo+#XOOO+oX @+@ %+Xo ++ooooO++#*#X$XoOOOO#O##+oooOO#$#.#oooooXXO@#%@.&=*$#$$ %@OOOOo.XXO+$#+OO+oX .o+#&#XXXo",
"  O ..X#O@ #@+OO+o .ooO#OoooOXo +@+ #oo..XoOOOOOoo@%#@o%OooooOOOo@#$$o%XXXooooo+O+oo@#&%.%%$###@ #@+OoOOO+@@##+oooOXo     +%O .X",
"++++++++#o @#+o+ooO@#$%$O+OooXX O+ +#+o. XXo+$++OOoo$oOoOoOoooooOOo@XooooooooooOO+++@#=#.&#$#+Oo @#+o+oOOo+@@+OOoooXX .O+O  O++O",
"           $OoOXo.oOXXooX.ooXX     +@+oO X..XX+@+OOO@$oOO+oo+oOoOOoO%%Ooooo+++oo+++X++%+ &$@OOOo $OoOXo.oOXXooX.ooXX  o@X+&O    ",
"@#$%%$%%+o +oooooXo.OXoXXXXXX.     ++OoOXXX ..OXOOoOo+#X*$OO+@+OoooOoO$O%+OoooOooOoo.+$@ %%@+Ooo +oooooXo.OXoXXXXXX.  @o##o.####",
"X.X.OOoO#@                      X  O#OOXooX.X.X.oOXOOoO%X$$o+++OoooXooo++%OOo$&oooOo.O$@ *#ooo.X                      ##XXXXoo@$",
"#@@o$O%##$ %%%$%$$#%#$#@@#@#@@O &o %#+X ooXXXoXXo.XooOOOoo&OOOO@OooXOOoXOXoo+oO$%OOXo##$ =#OoX.X %%%$%$$#%#$#@@#@@@@O #XXXXX++oO",
"XoXooX+XO$ %#@X#+++O+OOO++X#+OX $* O%+o ++ooXoOOoXoo+ooO+++$X+O@O++o.oX+oOoXX+OooOoo.o++ $#OOX.X %#@+++++  X#++++++OX.#Xo.XO%o..",
"XoXXOXoXO@.*@O.#OOOOo@oXO+ #Oo. O* #@+OXo++oooXOOo++oo++oooO$#$Oo+@+XO.oXXXXXXo++oO$#X@+ $@OOXXX *@+OOOO .oo+#@+ooOo.X#X.X+&X.oX",
"..+XX..Xo#.&#O.#OoOOOO#O@@ #oX. %=.O#+$XOoo++oXOO+oOoOooOO@%X+o%+o++O+OO.oO...O..o+o .++ &+OOXX. &#+OOOo oooo$#@+oXX. @X@@++..o.",
"O.OOX..XX$.%$O.O@OooooOOOXo@Oo. O$.O+.o+oOooo+++oo+ooOOOO$+Xoooo#%$&#O+#oooX.. .X .O .OO &+OOX.. %$++o#O XooO$+o@+Oo. #+@oO@O..O",
"#..#=&.+o# #@OoX@OoOooooo @O+XX o+ ##OX.X+oooo+++oooOOO%%X.oOOOOoooO+$@o##oo@OoO   O .oO &OO++.. #@+OOoOX oo#@oOOo+XX @OoXXo+@X+",
"oX ..O@&#% $#Oo #+Ooo+oOX.@oOOo O+#.# XX .oXooO+ooo$%o%o%&oOOOooOoooO&OOOo@@O@$O.XoX..XO $OOX+.# $#O+OOO+ X+$+oOOoOOo +XXXoo@oXO",
"XX   .+@#% %#OOo #+OO+@X.#OOO.X +X# % o oXXoo%$++%$o+$ooo%*OOOoooooXoOooooooooOXXOoo+.Xo %oOX&$@ %#O++O++Xoo#+OoOOO.X O.XXX+oX+o",
".. .  X+$# &#OoOo #+o+X.#O+OoX. #+@ %o. Xoo$$o+$$+o++++oo+o%o+ooOOXX..XooOoOoOOOo+XX..XO %+O#XO  &#OoO#oO X+$+OO+OoX. oXoXX#o+XX",
".      +O@ &@OOOOo #oX.#@OoOoXX XO$.#%@#O$%&++oooooo++O+Ooooo%+++++oooXXO..XooooXX.X.. X o@#oX.O &@OOOOooXoo#O@OoOoXX OOXX.+ ooX",
".    ..OX@ %@+ooOOo @ @+@O++oX. XOo #ooX.++Xoo++ooooooOooXXo#XooXXXOO++oo+X....XX  ... . %OOoXXX %@+ooO++ X+$O@O++oX. o@+.X O ..",
".  X  oXoO &$Oo++oo.oo#@Oo+@+.X X+O OX..XXXXoXoX+oXXX.XXXXX.O.XX.ooXXOoXXXX.X    o...  X #XO+X+. &$Oo++ooXoo#@Oo+@+.X Xo#.#+OX..",
" oX   o.Oo $#OOooO.Xooo#@+o++Xo @+. O.OO .XXXXXXXXXXXX.XXX.o.o.  .X  .X.        X     .. oXOX..o $#OOooOO@X++o@+o++Xo XO.++.++O+",
"XOoXOooOoX %@OOOOO.XooO#XOOO+oX +o   oO..o .X  .......    .o..X..    . ..  . XoOOO+Xo.   #XX.oo  %@OOOOO++X@ooXOOO+oX .XoO+++++#",
"     ..    #@+OO+O+.OO#@OoooOXo        ..  ..XoooOOOOOOoooOOOOOoX..XooOOOoX             .OO@#$@@ #@+OO++oo #OOOoooOXo           ",
"O##&*$%%OX @#+o+oOO+##@OO+OooXX #$###$#$#%#+$##@X.Oo                      .X@$$&O=&%#+#..  .     @#+o+oOOo @+OO+OooXX X+*&*%$$$$",
"O+++#@@@#o $OoOXo.oOXXooX.ooXX  ##$##$$#@@@##@@+#$%$$$%%%%%%$@O.    oO$&=O&##@+OO+@@OoX# +%&&%$$ $OoOXo.oO.+ooX.ooXX  o$@+#$#+#@",
"OOO+@#O#+@ +oooooXo.OXoXXXXXX.  ++@+@+OO+@@++OO+++%%$@*%#$@%##++X.  @=&$##++o+@@O+@#@o + &%@@@+@ +oooooXo.OXoXXXXXX.  O@@O@XOOOX",
"..XoOo.+O+                      oOOO+OOOOOOOXOoOO+O+o####+@*%@##@o..O%$#+O+X.+.@. +Oo..+ %$@++@O                      @@o@@o++X.",
"..OoX..Oo@ %%%$%$$#%#$#@@#@@@@O oooXoXOoOXOoO+O$+#@O+oO.XoX+o@@@$@o.=$@+oO+  ..+X .+.o.+ $@+O@OX %%%$%$$#%#$#@@#@@@@O ##.oo@+X..",
"X.O...o+o+ %#@+++++O+OOO+++++OX ..XooOoXXooXXX O+oXOoXOO@.@@O#o@&=O %###@Oo.. oo@..@.oO$ O@+@Oo  %#@+++++O+OOO+++++OX $XXX.oo@.X",
"Xo...XoXo+ *@+OOOOooOoooo+ooOo. ..XXXoooXooooXX .O  .#oOoOXooX@+#%# $#OO.@ooX X..@+o X.O +$++ Xo *@+OOOOOOo@oXO+ooOo. @. XXX@.X.",
"OO.X.@o o+ &#+OOOoX..   .o+oXX. ..XoooXoooX....oX oX ... O@+@oO++**X$@o@#.@@....OXo#...O. %X+ oo &#+OOOoOOOO#O@@+oXX. + XX X+...",
"OX..o+. X+ %$++oX        .o+Oo.  XXXXXooo.    .X.XXO.  .oXO$O++%o$$oo%OOoX.#@...X.oo#+O.O.$.+XX  %$++o#OooooOOOo@+Oo. O.X.OO. ..",
"O..X#X. o+ #@+oX         o+o+XX  ..XoXXX. ...oXOoX.+X.   oooOXo+O#%@.#+o+OO .+O. ooO@$$O#.@oO  X #@+OOoOoo X@+OOOo+XX O.XOX X .o",
"@Xo@OooXO# $#Oo.         o@+oOo .  .Xoo..XOOOooooX.+X...X Oo X.X$%%$o@+ .o.X ...O$@#.. +# O.O .. $#O+OOO+ ooO$+OOoOOo +XO... .oo",
"O@O#XXX@+@ %#OX          o@@o.X OX..X..ooOooooooooO.XX..X. .o..XO@%%oo$.o+. ..o.o.Xo. .XO  XXo   %#O++O++O O#@+oOOO.X #+@X. .oo.",
" +@XXXOOO+ &#O.         o@#@oX. ..OX..XXXoooXoXO+o+X...... OooO@Xo#%+ $+.XXo.oo.O  O  ..+ X.     &#OoO#oO o@o#OO+OoX. @X..X.XoX.",
".O#+.X#OoO &@O.         o@$@oXX     .ooXOooOXo@@O#OOX.... @oOOOXXX#*#XX$ooo X. .X ...  oO    .Xo &@OOOOoo +O @@OoOoXX OXX....X..",
"XO@oo@+XXO %@o         o@##+oX. ...ooOO+o+$@$#@OOoXoX.....#XO#oooX#&%. #O ..... .X ..oX.O        %@+ooO++ o  $@O++oX. .ooOo....X",
"+o+###++XO &$O.       o@#$@o+.X ooo.@+###$@OXXXooXXXX...+  .o+$  O@&$@.oO  .. . ..Xoo .OO@%&*&&& &$Oo++ooo +$@Oo+@+.X  .o++OX...",
"#oX@O+##O+ $#Oo     oo@#$@+o+Xo +X+ooOoXoXXXoXoooXXooo+OX ..X@OO X+O$+.oOX..XXooX  .X+$$%#@@@@@+ $#OOooOO@++@o@+o++Xo .ooXO++..O",
"o#.+o.XXO+ %@OOO  oo@@$#@+oO+oX +O.@##..XoXXoXoXX...X%.#.X  .oXo.oXO%+. XXOo  .Xo#%$@@@+@+OOO#XO %@OOOOO++ooooXOOO+oX .oX..XOoo+",
"Xo.OOo XXO #@+OOoo@#$#@+ooooOXo $%#X..@@OXXXoXoXXX+&%#ooo.  o .X.X X#oX   ..@O&%$$$@@OXO@ooO+@+o #@+OO++oooOOOOoooOXo X....X o+.",
".X..OOo.XO @#+o+oOooooXoO+OooXX X+oXX.XO+#+X$oXXX##+#**o... o .X.X o&OX @O&$$#$##oX+OOXo.OX++ooo @#+o+oOOoOO+OO+OooXX ...XX...+.",
"..Xo.X...o $OoOXo.oOXXooX.ooXX  ..X....X.X @.#X##.XooOo$ooX.oo.X .Xo&+.#$*@+@+$#O+o++.ooo@#ooX+o $OoOXo.oOXXooX.ooXX  X.. .....O",
".XXO .X.XO +oooooXo.OXoXXXXXX.  X......XXXo+..$#ooXXXOOX#oXoOO ....O=+.#&@+#+XO#$oOoo+@O+XooXXX+ +oooooXo.OXoXXXXXX.  .X. ..X..O",
".OXo .  X+                      +O.XX....#ooo.#%#ooXXo.+o#+XO... . @$+ &%+OOOX@+o%+X#X...ooX..X+                      XXX.. ..  ",
"O.XOO.  .O %%%$%$$#%#$#@@#@@@@O o+#.o o.@##%o.#XX$XoXXo+X#o++O..@@  O# &$+OX.oOoo#Xo#O.XXoXX.... %%%$%$$#%#$#@@#@@@@O .X.       ",
"XXo.@. .oO %#@+++++O+OOO+++++OX +Oo+o.O#.o..##XXoOoXXX..++#XO.o.. X @+ *#O... XXX@+++##+Xo+X.... %#@+++++O+OOO+++++OX  . ...... ",
"O.  .  XOX *@+OOOOOOo@oXO+ooOo. . XX##+. ...XXXX++oXoXo.o+=#OO..o . O@ %#@o.  Xo+OXXOO+#oXoX.&.. *@+OOOOOOo+XXO+ooOo.           ",
"           &#+OOOoOOOO#O@@+oXX. .XXXX.+Oo....XoOXXXXXXXX.#&=&Ooooo. #+ %#Oo  . @o ..OXOO@@o..+.o &#+OOOo+++@##+OooXX. XXooooooX.",
"#@%==&%%+X %$++o+OoOOoOOOo@+Oo. .XXooXO$+XX...O+...oXXXX+@O+*%+O.oOX#O %@@OX.oO+##+OX.XX#.+#.X.. %$++Oo..XXXXO#@O+Oo. O+#$$$#@++",
"O#++#@##$+ #@+OOo+O++OoooOOo+XX OOXoo.OX$*@+@#+X.XX..X#X.o.oO.#.+X#X@+ $$+#+#+O+X+*##.o...oo@X.. #@+OX        O##o+XX +#@+Oo..X ",
".+X.#O+++@ $#O+O @@+O+oOoOOoOOo XO++oooX.X&#o..X..XXX$@X#...@..#%+X.&@.#@+o.XXX+XoXooo.X..XXO#.. $#OX   XXXXXXoO$+OOo #ooo.   oX",
"O..o*+.X+# %#O+++  @++@+OoOOO.X ooXXO+X..+o#..XX. O@$@X.....o+ .+%X#O@ #@O#@X++ooXXXXoXX..oXX@X. %#OX   Xoooo+@@#+O.X #..XXooO .",
"+.XXO%..o#.&#OoO+X. @#@++O+OoX. .ooX.X+.o +%$#o@$@+ Xo##X....+#oOO+ X+ @Oo#O@++XXXoooooX.XXX.X++ &#OOX   XooO@@#+OoX. $OX..X  .X",
"...#X#@X+@ &@OOOO+X. @+$+OoOoXX ..+...X+..@+ooOXXX.#...+.#..Oo#@..  XO +o OXoX#++#XXoXXoXXooOOXO &@OOOX  Xoo+@#+oOoXX #+Oo .  X ",
"X ++o+$.O@ %@+oo+++X. #@OO++oX. ...X.X.Oo@# ...Ooo....@## .  ++X..  .+ +XX.X$#X#$++XXXoX.X+oOXoo %@+ooOX  XO@#+O++oX. @ OOXOo  X",
"oOXO o$.X+ &$Oo+Ooo+X  @+++@+.X . X+.X+O.#.. .. +X X..ooX+&@ooX...X.OO +oX#OXooXX#X+o++OO.XoXoXX &$Oo++OX X@#@Oo+@+.X +oo   Xo.X",
" oO. ..#@o $#OOooOOo o. @+o++Xo o ..O..O&...  Xo+OXoXO$OOo+ %....  .+@ +O++.XoXXXX#X.oX...XXo..o $#OOooOOXo#@OO+o++Xo O.O    .oX",
" XoXXOXOo+ %@OOOOO+oX+o. @+O+oX .  ....O$o ++XX.+##oO.Xooo..X OoO  OXO OO.oXXXXoX#$.oXXXX.oX.  . %@OOOOOOOXoOOoOOO+oX O XX   .XX",
" XX...+. X #@+OO++OOO++oO+OoOXo  .   O+  O+   ..  o o.O .XXX X . Oo+++.o+ooXXXXooX# o.XXX.oo.    #@+OO++oooOOOOoooOXo o .X. oo..",
". .XX ..X. @#+o+oOOoOOOOOOOooXX     X      +... X  o   .o.   XXXoOoooX XOXXX..XXXX @O XXXX.      @#+o+oOOoOO+OO+OooXX o.X..o....",
"o  X.   .X $OoOXo.oOXXooX.ooXX   O   o    .oO      .  .ooooOo.ooOooOO    o    XXXXXX@+.X...      $OoOXo.oOXXooX.ooXX  XoX. Xo   ",
". X .  ..  +oooooXo.OXoXXXXXX.  oOooOOOOoooOXXXXXXXOOOoXXXXOo+@XXXXo      XOOOOOOOOOOO++OOOO++++ +oooooXo.OXoXXXXXX.  XXooooOooO"
};
