/* XPM */
static char *_aee8468379a477fe1a8670f95b1acacZYxymF6WGos6xKgn[] = {
/* columns rows colors chars-per-pixel */
"128 94 13 1 ",
"  c black",
". c #0C0408",
"X c #201018",
"o c #351C28",
"O c #452439",
"+ c #593145",
"@ c #693D55",
"# c #7D4565",
"$ c #8C5171",
"% c #A0597F",
"& c #B06590",
"* c #C4719C",
"= c #D979AC",
/* pixels */
".XXXooooOooooO+OOooo  oXXXXXooooXXX . XooX++o+++oXXX+##+ooXXXo++@.@$OO#.++. ..     OX++oOOooooooXXX Oo OOXXXXX..XXXXX..  ooXXXXX",
"      OOXO.  o.@@.X.X o     ...X.+O. o .  .X@.. X   @O+O... . #..XXoX.OOX@+@+@@OOOOOO@oo@OXX.o.X.  O   oo.. o.       ... oo     ",
" .......X%.O$ o...XXo X  +@@@@@++X@$    X   X#. X.  X XO@    . oO o Xo++X..X..O. ..X+.  X  X o. X  O   OO.ooX .oX...oo X oXXXXX.",
"O#@@#+@+&%%o#O+.+.Xo+ X +%%@+XoX.X@% X o     #. XXXo  .o#OX    oX .   X X     Xo   . oX . . . .XX.O Xo #Oo+o  .X+..  XOo XXoooo ",
"...X...o+.. . ..###$+ X O++oX  .oXX#.o X     X  .XX....oO#+@o@@X +..X     o o  @o X  X    .+Xo X  +X X #O+@. +.Xo  . +#+ X Xooo.",
"......oo...  X##.XX$+ XX   X  ..XXo* X +Xo.  OX.Xoo.XooXX.O$oXO O+++Xoo.OO  .  OO+...o .  oOo$@ .X ....#@OO.OooOO+X O%+o . .XX  ",
"&.XX+OO..XX  #X..XXo+ o@O..X X...++# X @ooX  #oXXXOOXo..OOXO&Oo#+X+++XX++..XX..+.Xoo  XoXO@ @+++#.XX   #@oooX .%.++#O.+X . .   .",
"o&&X+...XX.  .X..Xoo+ +. @O  OXo+XX% X O #o.X@X..XoOo.X+Xo oO+. .$%o&++.XXX..XoO.XXX#$@##O+o #...XX  . $OO..  O .  .+ #X O  X. .",
".oO&.+#o$X.. ....Xoo+ +.Xo++ ...oXo% X O.o#Xo+X.XXX.XO.oXoo% .XXXX..##.XXXXXXo XX+##+@oX+   .O@o.... X #OO.. X+    OX +X +Xo+o..",
"..o@#%%#%@.+ +.XXXoo+.+..o..O@#X#$#& X oo.+$@.oooo.ooXOXooo%oXoo+X.XXX..#@O+.#$#O+oXoXO.O@Xo   O@O.  o $XO...O .. OX. +  +X+@. .",
"X.%#X..XX.+@+X.XX++%@ + XX...X.#XXo% X XoX$XX ..X.XX.O+oo@@..XX+X+ooXoXXooX@...XX....XX+..#o    o#@  X &oXO+++OX..@@+ o  @o@+ ..",
".+%.........@.X++X$o& + o ....XO.oO# +.X.oo+@O..oo.. XXXoOX#X#oXXo++oXXoXooXXo.XXoo.O++Xo..+O..o   +OO @#*#@@.@#o+.#OOo. +.o@OX.",
"#@o...X......+XX#ooo= + X ....X+.XO# +.o.o..oOoX.o.XX.X@@X.XX+#&XXX+o+++XoXoXX++o++++XooXX.X+XoXX.  .+ .+#$%%&$###++++oX OoOOXo.",
".Ooo.ooo.X...X##Xooo&.+ XX...X++.o@@ + X XXXoX@.....o.X+XOXooXXX#XoXX+Xoo+++X+&.X$##&&+oXo.@O oXo. Xo#   .o.        . . X@+XoX.X",
"XOX.OoXXX...XO$XXooo&.+ X...XX@XXo++.+ +oooXoX+#oo.XoXoO.OXoooX+&o#&##XX$$oX*#o#$oooXoX++Xo#o.ooo..o#+ OXOoXXXoXXXXXXX.  @o.+oo+",
"+.X.X.+XX....+O#@Xoo&.O.XXXXX.#.XX@  #.O.XXXoooO@++oXXO#XXXXXooo$#*+oo$#XX$&$*XoooXXooXXo#+oo . X.Oo.O OooX....        X # XXO#o",
"&.X..XXXX...Xo#OO$oo= $.oX.X...$+X#.O@XOOo.XXO. XX@++$#oooooXX#$$oo+ooooOooOooO++oOoXOXXX@+Xo.X.o.O.X+ @oooooOOOOX.... X #   .+.",
"..X.....X.X.X.O#Oo$&= +.XX..X..O+@$ +@+O...XXXooo@+o.XX#$@OXooooooXo+@OoOOoOoOoooOo+oooOXo+O+XX.X+.oo+ #ooOOOOOOOXXX.  o %XX X@#",
"O#....oXX.X.XXX%oXX=X++.Xo..X..o#O& O@+++@@++++o++OXXoOOOO$##XooooOoo+@+oOOo@OO+OOOXooooooX.OOOOO+O+o+ $ooOOOXX.+O.... o $o+...+",
"OOO+.X......XXX#Xo+& O#+XoOO.##.X$%  O#+@O+@#+@@@+#O+@@+##@@@&@##$++O@+oO+++oOOO+OOXoooOXoO#+XXXXX@=&+ %oOOOXXX#.X.....O.%O@X. +",
"...oO#O.XXo.XXXXoo+& O+X+oooo#X.Xo&   +@$%$#$%**%$$$**&&#%%&*=*&%%%$$$*&#$++@@@#@@@++OO+o@@@Oo+O%$o#O#.&o@@o..#  #&&#@.O.*O$X +.",
"##O##%#XXooX$#X%ooO& O .XO...+++Xo=.      ..     ..     X.   . .        o+++++%%@#$###&+@#$#+*+@+$$#+@.=$@#$##  .oX.O.@+ &+#.o.o",
"X..XX..##$#XX+$++O+& O XX@#.#oX+++& .#&$%$%O&O$==*&#OO@@$O@#%*==&*=&$@O$X..     .....##++$%%####++++X. &%@+X## .oo..X. + %o+o.%+",
"X...X.X+&+X#*o+&&+oX O .X.&#%XooXo& $*###$$&*$#%$##@@++OO#@+###@#$&*#$*##$$@=#&@@OO+        .          %+@oOO&#ooX.XX.o#.%O$&$+@",
"....XX++#X++oOX   .  O XoX#X#$oooo% *&+o+@@*+#@$+@@+++O+#+O+@+@$@&@%$$%%$$&$**O=*O%O+  ###%*=O*&%#OOO  %+@+X++=&..OO...+.$@+$+$O",
" ...OOXXX#X$+O ##&&+ O .o.Xoo.$$X$& =%$@O%*#++O@++oOXXoXO+OOo+$#@+O+*@O#$O%&@@+$%&&%@.o&@#@+#&$$@@$@%& *@@XXXX@O&&O#...+ $#%@#&o",
"  oo...X.XX#. %&#Xo=.O  OoXXX..##o& &+%%%#+#O.#+ o ooXoOOooOooO+OOoo#*o#@oX+O@####$*@.O%&@+XX@OoO+o.O% =oooo++.X@&#..+O+ +X#+#++",
"++##+##+++   %%#++o=.#. oooXX+OX$o% #@@Oo@@O@+#o++@+ooOoOoOooooooo&&OX@Xo.O@O++++@@@%+ O=@Oo.+oooXo  # &+Oo+.o+OoX&%+.O+  ++#+++",
"       . .. #O%#o.o& O+@oXXO+XoXXo& $@Ooo #+O+$+O$+ooOOoo%OOOooooooo$X#Xo$Xo.XoOOO#+%@ o*oXX..X      @.=#$#$OOo@@o...+O+     .  ",
"#$$%%%%$X .X$@.X##o& O .+@+XXX..OO& %+OooXo#oX%+$+oooooooo#oOoooOoooo$XooX$+@%o@o+@@@%O #oX          + %@$$O@@O$oOX...O+ &%%*%#%",
"Xooooooo%#  O%..Xo%& O Oooo++XoXOO% *#X+OXo.#&OO$OO$%ooo#$$$oooOOOOOo# ooooXXO@.ooO#@*O   +Ooo++oo+oO   +@%$#+$@@@+OoOO+ **+o$#+",
"#X.#XXooo%  +..O+X%& O   .X.o.X+O+$ %+OX+o.Xoo%*o$*OOOo%XXoo@oXO%ooOOo@.ooOooXoXoXO+@%$o    ..     .        ++*#%#$##@+#X*oX#.OO",
".@@.#&#Xoo# + ..++%& O .O   .XO+@+@ %+Xo ++ooooO++#*#X$XoOOOO#O##+oooOO#$#.#oooooXXO@#%@.&=*$#$$@%%$$###%#O    .     ...+#&#XXXo",
"  O ..X#X$# +   .*=& + oXXXoO++++@+ #oo..XoOOOOOoo@%#@o%OooooOOOo@#$$o%XXXooooo+O+oo@#&%.%%$###@@#@@@##@#@@$#*%%****&O    +%O .X",
"+++++++++#  +++  ++ . ##++++++#@O+ +#+o. XXo+$++OOoo$oOoOoOoooooOOo@XooooooooooOO+++@#=#.&#$#+OooO+OOO+&#O+++++++O+@@+#O+O  O++O",
"                     ....          +@+oO X..XX+@+OOO@$oOO+oo+oOoOOoO%%Ooooo+++oo+++X++%+ &$@OOOooOooOoo#%OOooOOOOOO%##XoX+&O    ",
"@#$%%$%%%&*=*&%%&&&&=**%%&==&#o    ++OoOXXX ..OXOOoOo+#X*$OO+@+OoooOoO$O%+OoooOooOoo.+$@ %%@+OooX+oX.. .&# XXXXXXoXX+XXo##o.####",
"X.X.OOoOoo+@O@X+@&&@@$+O@#@$=$*OX  O#OOXooX.X.X.oOXOOoO%X$$o+++OoooXooo++%OOo$&oooOo.O$@ *#ooo.XXo+O..X.o#%X#.oXXXXX#o$&XXXXoo@$",
"#@@o$O%#@=%@===$*%=&*$@=#$+++$#=&o %#+X ooXXXoXXo.XooOOOoo&OOOO@OooXOOoXOXoo+oO$%OOXo##$ =#OoX.XXoXXO.X.o  O%$O#X#$#X.XXXXXX++oO",
"XoXooX+X$OO++o@@$#$#=*&%#+&#%X+#$* O%+o ++ooXoOOoXoo+ooO+++$X+O@O++o.oX+oOoXX+OooOoo.o++ $#OOX.XXooX$.##. .+@XO+#$OX.oXXo.XO%o..",
"XoXXOXoX+.ooXXO+&Ooooo#+X@XOOo%#O* #@+OXo++oooXOOo++oo++oooO$#$Oo+@+XO.oXXXXXXo++oO$#X@+ $@OOXXXXoX@..X.O@@.XXXXXXX .oXX.X+&X.oX",
"..+XX..XoooO.O#%+@XX+o#O@O+OXoXO%=.O#+$XOoo++oXOO+oOoOooOO@%X+o%+o++O+OO.oO...O..o+o .++ &+OOXX..oX@.  .oX.OXXoXoXX oOXX@@++..o.",
"O.OOX..XXoXoO@.XoOOO@&*$$oXoO##$O$.O+.o+oOooo+++oo+ooOOOO$+Xoooo#%$&#O+#oooX.. .X .O .OO &+OOX...oX#+.XoX..XO+XXXXX.OoX+@oO@O..O",
"#..#=&.+oX+@#OXXXoo@&#+o#@OO$O#oo+ ##OX.X+oooo+++oooOOO%%X.oOOOOoooO+$@o##oo@OoO   O .oO &OO++....@ .X.X...XXXXoXXXooXOOoXXo+@X+",
"oX ..O@&#+@oOooX.X$$o..XXX...O@ O+#.# XX .oXooO+ooo$%o%o%&oOOOooOoooO&OOOo@@O@$O.XoX..XO $OOX+.#&&X.X .XX..XXooXXXXXXo+XXXoo@oXO",
"XX   .+@#*#XoXXo.O@oX.X.o.XXoX@#+X# % o oXXoo%$++%$o+$ooo%*OOOoooooXoOooooooooOXXOoo+.Xo %oOX&$@oX+&..+oXX.XXoXXXXXOOXoXXXX+oX+o",
".. .  X+$@X&@XoXO%X.XXOXX.oo..o+#+@ %o. Xoo$$o+$$+o++++oo+o%o+ooOOXX..XooOoOoOOOo+XX..XO %+O#XO O@oO#&++XX.XXX.O+X+@X.XooXX#o+XX",
".      +OO#. . oo@XXXXXXXXO@$++OXO$.#%@#O$%&++oooooo++O+Ooooo%+++++oooXXO..XooooXX.X.. X o@#oX.OX++OOO%+&+OX+o++OXXXX.oOXX.+ ooX",
".    ..OXoo#O+@ XXX.XXOo@$#O..OoXOo #ooX.++Xoo++ooooooOooXXo#XooXXXOO++oo+X....XX  ... . %OOoXXXOX+X..X@X.O@$#OoXX+OXXO#+.X O ..",
".  X  oX  o.oX#oX+Oo. .X.X ....XX+O OX..XXXXoXoX+oXXX.XXXXX.O.XX.ooXXOoXXXX.X    o...  X #XO+X+..+++.+oXO@@@XoX##X.XOXXX#.#+OX..",
" oX   o.O.o X+oo@+.   .       . @+. O.OO .XXXXXXXXXXXX.XXX.o.o.  .X  .X.        X     .. oXOX..oO+XOO..XO.#X.....@...O.+.++.++O+",
"XOoXOooO.XXOOooooOO@XXo XO.X...o+o   oO..o .X  .......    .o..X..    . ..  . XoOOO+Xo.   #XX.oo ...   .. O XXXXX.XXXXOOooO+++++#",
"     ..      ..                        ..  ..XoooOOOOOOoooOOOOOoX..XooOOOoX             .OO@#$@@@++OOooXX                       ",
"O##&*$%%%&X   O@oo++@++###++O+@##$###$#$#%#+$##@X.Oo                      .X@$$&O=&%#+#..  .      ...... .oOo.  o@$%&%%**&*%$$$$",
"O+++#@@@@#%X O%+O@@@####%@@#+@%###$##$$#@@@##@@+#$%$$$%%%%%%$@O.    oO$&=O&##@+OO+@@OoX# +%&&%$$&&%$##$#$$#$@+. @##%$$%O@+#$#+#@",
"OOO+@#O#+@*+ %O+++++++OO+O@+O+OO++@+@+OO+@@++OO+++%%$@*%#$@%##++X.  @=&$##++o+@@O+@#@o + &%@@@+@@@@@+++@+@@#@%O %@#$+O#O@O@XOOOX",
"..XoOo.+oO#=.&@ XO+@oOO+O++OOOoOoOOO+OOOOOOOXOoOO+O+o####+@*%@##@o..O%$#+O+X.+.@. +Oo..+ %$@++@OOOOOOOXOo@+$+#@ $$%@+Xooo@@o++X.",
"..OoX..OXO@& +@#O+@XO@#XOOoXXOXXoooXoXOoOXOoO+O$+#@O+oO.XoX+o@@@$@o.=$@+oO+  ..+X .+.o.+ $@+O@OXOOOX@X+O+++@+++ &@@#o+O+.oo@+X..",
"X.O...o+XoO& +.+@.oo#XoXXoXX...o..XooOoXXooXXX O+oXOoXOO@.@@O#o@&=O %###@Oo.. oo@..@.oO$ O@+@Oo  .+X..o++OXo#@+.%#+++o+XXX.oo@.X",
"Xo...XoXXoo% +X Oo@#XXoooooo.X....XXXoooXooooXX .O  .#oOoOXooX@+#%# $#OO.@ooX X..@+o X.O +$++ XoXOoXXo+OXXXo#O+.%@Ooo.X. XXX@.X.",
"OO.X.@o .XX$ +.  @&oXX.oO.oo.oX...XoooXoooX....oX oX ... O@+@oO++**X$@o@#.@@....OXo#...O. %X+ ooO+OoXX+XX.oO@OO &@Oo+XX XX X+...",
"OX..o+.  Xo$.+.X +=&+$OOoXXX.XXX XXXXXooo.    .X.XXO.  .oXO$O++%o$$oo%OOoX.#@...X.oo#+O.O.$.+XX XoXo.O...+ o@Xo %O@O.  .X.OO. ..",
"O..X#X. .o@#.@oXoX.O+O$#@+OX.OoX ..XoXXX. ...oXOoX.+X.   oooOXo+O#%@.#+o+OO .+O. ooO@$$O#.@oO  XXO..OoX . @Xo.X #O+oO...XOX X .o",
"@Xo@OooXO#o#.+ooOOX.X+Oo .X+o.+X.  .Xoo..XOOOooooX.+X...X Oo X.X$%%$o@+ .o.X ...O$@#.. +# O.O ... ..O  o.O   Xo #O+X++XXO... .oo",
"O@O#XXX@+Oo#X@+#+ XOXo+. .XX..O+OX..X..ooOooooooooO.XX..X. .o..XO@%%oo$.o+. ..o.o.Xo. .XO  XXo     .. .o     O O#OOX +#+@X. .oo.",
" +@XXXOOOoo#.Ooo+O.OX++X# ... .X..OX..XXXoooXoXO+o+X...... OooO@Xo#%+ $+.XXo.oo.O  O  ..+ X.        .    X   o O+OOXoO@X..X.XoX.",
".O#+.X#Oo..# #.X+Xo.+X$#..XXoX .    .ooXOooOXo@@O#OOX.... @oOOOXXX#*#XX$ooo X. .X ...  oO    .XoXX.. .Xo.X+XX.X@+o..XXOXX....X..",
"XO@oo@+XX. @ @......O+O@$&&&OOoX...ooOO+o+$@$#@OOoXoX.....#XO#oooX#&%. #O ..... .X ..oX.O                      +Oo XXX.ooOo....X",
"+o+###++X. O #X.. oO+oooO.OOO&oOooo.@+###$@OXXXooXXXX...+  .o+$  O@&$@.oO  .. . ..Xoo .OO@%&*&&&&&%%%$$$#$&%#  @OoOoX. .o++OX...",
"#oX@O+##OXX@.#..OXo.$XXX X   O.++X+ooOoXoXXXoXoooXXooo+OX ..X@OO X+O$+.oOX..XXooX  .X+$$%#@@@@@+OoO+oOoXX .+#+ @o.X.X..ooXO++..O",
"o#.+o.XXO#o+ OXX..$+ XXX  XO. .#+O.@##..XoXXoXoXX...X%.#.X  .oXo.oXO%+. XXOo  .Xo#%$@@@+@+OOO#XOXXOoXXo+++O @& @@Xo..X.oX..XOoo+",
"Xo.OOo XXO#O +Xoo$O  .XXX++++OXo$%#X..@@OXXXoXoXXX+&%#ooo.  o .X.X X#oX   ..@O&%$$$@@OXO@ooO+@+ooOO+ooX.O+@XX$ O+oOo.oX....X o+.",
".X..OOo.X.Oo.+XXXO.# O.+Xo.o+o&#X+oXX.XO+#+X$oXXX##+#**o... o .X.X o&OX @O&$$#$##oX+OOXo.OX++oooX.XoooXXXo@O % O XooOX...XX...+.",
"..Xo.X...oO O+O.X@.X+##X+..+X##+..X....X.X @.#X##.XooOo$ooX.oo.X .Xo&+.#$*@+@+$#O+o++.ooo@#ooX+ooXo+oOOoooo+ # o.XOXoOX.. .....O",
".XXO .X.XOO O+X.XO . ..OX.@#$o +X......XXXo+..$#ooXXXOOX#oXoOO ....O=+.#&@+#+XO#$oOoo+@O+XooXXX+XooooO+O+O++ # X  XXoO.X. ..X..O",
".OXo .  XOo O+XX.o....O#@...X .++O.XX....#ooo.#%#ooXXo.+o#+XO... . @$+ &%+OOOX@+o%+X#X...ooX..X++X++ooo@Oo+O $ +  ...OXXX.. ..  ",
"O.XOO.  .OO Oo. oXX.+o+.+OX.XX@oo+#.o o.@##%o.#XX$XoXXo+X#o++O..@@  O# &$+OX.oOoo#Xo#O.XXoXX....+#oooX.OoO+O # X   .  .X.       ",
"XXo.@. .o#+ +oo+OO++OoXX.OOo.@+.+Oo+o.O#.o..##XXoOoXXX..++#XO.o.. X @+ *#O... XXX@+++##+Xo+X....XO+XXX.ooO@X.@ . ...XX . ...... ",
"O.  .  XXX  @o.XXo@+..X.XXX.o%oX. XX##+. ...XXXX++oXoXo.o+=#OO..o . O@ %#@o.  Xo+OXXOO+#oXoX.&...O+O++.oX@+o.@  X               ",
"            @++@O++++o.XXXXX.X...XXXX.+Oo....XoOXXXXXXXX.#&=&Ooooo. #+ %#Oo  . @o ..OXOO@@o..+.o&XXOO#+oO+oX.+ XOO+O@OXoooooooX.",
"#@%==&%%$$. OO.+X.Xo.+oXXXXXX..O.XXooXO$+XX...O+...oXXXX+@O+*%+O.oOX#O %@@OX.oO+##+OX.XX#.+#.X..XX#X$%$OXO@X O X+$%%$$#@#$$$#@++",
"O#++#@###@&.#o .. .... +XOX.XX..OOXoo.OX$*@+@#+X.XX..X#X.o.oO.#.+X#X@+ $$+#+#+O+X+*##.o...oo@X....XoO..@.O ++O +$&$#@#$#@+Oo..X ",
".+X.#O+++@*.Oo ....... ..X+O+XX.XO++oooX.X&#o..X..XXX$@X#...@..#%+X.&@.#@+o.XXX+XoXooo.X..XXO#..ooXXoX..XXO. O #$@+++OoXoo.   oX",
"O..o*+.X+#* @o.o  X...  .XooO+oOooXXO+X..+o#..XX. O@$@X.....o+ .+%X#O@ #@O#@X++ooXXXXoXX..oXX@X.o+@oXOXoX.@+ @ $@O+OXXo .XXooO .",
"+.XXO%..oo% OX XO .XXXX..Xo+Ooo..ooX.X+.o +%$#o@$@+ Xo##X....+#oOO+ X+ @Oo#O@++XXXoooooX.XXX.X+++@oOooOooX OX$.&+@@O+O+oX..X  .X",
"...#X#@X+X$ OX Xo.X...X X++...oX..+...X+..@+ooOXXX.#...+.#..Oo#@..  XO +o OXoX#++#XXoXXoXXooOOXOOXXXXX...X..+@ *+@OoX.o+Oo .  X ",
"X ++o+$.O+#.O.  . . .... XX...XX...X.X.Oo@# ...Ooo....@## .  ++X..  .+ +XX.X$#X#$++XXXoX.X+oOXooOooXoXo.XX.. O *+X+oX.X OOXOo  X",
"oOXO o$.X+@ +  .o    X.. ....Xo.. X+.X+O.#.. .. +X X..ooX+&@ooX...X.OO +oX#OXooXX#X+o++OO.XoXoXXXOX.....XXX.XO #X+o.XX.oo   Xo.X",
" oO. ..#@o+.+Xo    .  ... .X.XXXo ..O..O&...  Xo+OXoXO$OOo+ %....  .+@ +O++.XoXXXX#X.oX...XXo..oX.XXXX.X+ Oo + #o+o o  .O    .oX",
" XoXXOXOo+o O.. X    .X      ..O.  ....O$o ++XX.+##oO.Xooo..X OoO  OXO OO.oXXXXoX#$.oXXXX.oX.  .ooOXoo...OX. @ $.o+OX.  XX   .XX",
" XX...+. X. O                Oo. .   O+  O+   ..  o o.O .XXX X . Oo+++.o+ooXXXXooX# o.XXX.oo.    ..XXoX.X.X  + @ X XOX  .X. oo..",
". .XX ..X.. O             +OO.      X      +... X  o   .o.   XXXoOoooX XOXXX..XXXX @O XXXX.        .X   .  . O +XX..XO .X..o....",
"o  X.   .Xo   O  O    . XO       O   o    .oO      .  .ooooOo.ooOooOO    o    XXXXXX@+.X...                 XOXO  ...oOXX. Xo   ",
". X .  ..     oo.OXXXo@O+OooOOOOoOooOOOOoooOXXXXXXXOOOoXXXXOo+@XXXXo      XOOOOOOOOOOO++OOOO+++++OOOOOOOOOOOoO  XoXOOXOoooooOooO"
};
