/* XPM */
static char *result[] = {
/* columns rows colors chars-per-pixel */
"128 96 14 1 ",
"  c black",
". c #1C1408",
"X c #1C0414",
"o c #2D2410",
"O c #3D3514",
"+ c #310820",
"@ c #491431",
"# c #611431",
"$ c #791C35",
"% c #494114",
"& c #4D5118",
"* c #902431",
"= c #A82D31",
"- c #C04135",
/* pixels */
"                                                                                                                                ",
"++++++@++++@+++++++#X+++++++@+++++@@@++++@@+++++++@@@@+X++@@++++@+++X++#++++++@++@# ++++++++@+++++@@@++++@@++++++@@@@++++@@++++@",
"@@@#@###@@@++@@+@+@$X++++@@++@@@#####$####=**$$*=****$#@$$$$####@###+###@@@#@####@#X+++@+@@++@@@#####$####=**$$*$###@$##******#@",
"@@@#@####@@@@@@@@@@$X++@@@@@#####$$$$$####**==*=******#@#**$#*$$$###@###@@@#@####@*X++@@@@@@#####$$$$$####**==*=*$@$$####$$$$$$$",
"=$$$*$$#$$$$###$###*X++@@########$$####$$$$=**=$$$*$$=#@$$*##$$$=#$$$$$$=$$$*$$###=X++@#@########$$####$$$$=**=$**$###-*$$$$$$$=",
"$$$$$$$$##$$#$$$$##=X++@####$###$$$$$$$$$$=****$$$$==*$##$$##***$#$$$$$$$$$$$$$$##=X++@@####$###$$$$$$$$$$=****$$$*$##$#**$*$=*$",
"$$$$***$$$$$$***$##=X+@@#$#####$=$$*$$=*******=*$******#$*-*#$$$$@$*$*$=$$$$***$##*X+@@##$#####$=$$*$$=*******=**=$$##*#**$$*$$$",
"$=$$***$***$$***$##=X+@#$$###$#$$$$$$**==****=****$****$#=**#*=*-#$*$$*$$=$$***$##*X+@##$$###$#$$$$$$**==****=****$###=*$*$$***=",
"$*$$=$$**-=******$#*X+@#$#$$##$*$$$$*$=*==*==******$****#**$$==*=$#@#**$$*$$=$$*$#=X+@#$$#$$##$*$$$$*$=*==*==*****$###$$**$$$**=",
"$**-=*$**--=*****$#*X+@#*$$$$$=$$=*=*-=*=*=--==*==**=***$$*$#*#=*=$$*$*$$**-=*$*$#=X+@#$*$$$$$=$$=*=*-=*=*=--==**=$###$$$$$***=*",
"$$*=-=*$*==$==*$$$$*X+@#==*=*=$$*#***$==*=-==-=*=*=**-=$$$*$$**$*=$$#**$$$*=-=*$##=X+@#$==*=*=$$*#***$==*=-==-=***####$$*$***-==",
"***=-$-**$$$*==$$#*=X+##*****$$$$$$$$$$$$-**$-===*==*==*$#*#**#**-*#*$$$***=-$-*$#=X+##******$$$$$$$$$$$$-**$-====$$##$#*$$****=",
"**$$$$***$$$**=$$#$=X+$*=*-**=***$$$****#$*##$***=-*****$#*#=****$$$--*=**$$$$*****X+$**=*-**=***$$$****#$*##$****$$###$$$$$**=*",
"=-$$$$***$$$=**$$#$=X+#*==**=$****$$****$###=====******$$$*#-****$$$==**=-$$$$***$*X+#**==**=$****$$****$###====**=$#$#$#$$$$$*=",
"=*=$$$=*$$$=**$$$##=X+#*=***$$*-***=--$*********$$**$$$$$$##$-=$$*=#=*=*=*=$$$=**$=X+#**=***$$*-***=--$*********=*=$#$#$$$*#*$==",
"=*$$$=*$$$$**$=$$##*X+#$$*==$--**--**$$$$==****$$$**$**#####$=-*$*#*-$$*=*$$$=*$$$=X+#$$$*==$--**--**$$$$==****$$=$$#$$#$**=$$**",
"*$$$$***$=$$$$$*$##*X+@$*****==-**$$*$*$###$**-===***$*#$##$#=-$**##$$$**$$$$***$#*X+@$*****==-*==$$###$==$*******-$#*$@$#$$$*=*",
"-$$=$$$**$##$$#$$##*X+@$***$$*=-$*$$**#$#$#$==*********#$##$$$**$-@#-*=*-$$=$$$*$#*X+@$***$$*=-**$$$$$=*-**$****$$*$#$*##$$$$$==",
"$$*$##$*$#$###$$###=X+@#$***$$=$=$*$**#$###$$$$****==$$#$###$$$$$*#@#*$$$$*$##$*$#=X+@#$***$$=$$*$$**#$$$$***$$$**#$**$##*$$=$=*",
"**$$***$$#####$##@#=X+@#$***$$$$$$$$$$##$###**$=**-$$*$$####$$$$#=**$*****$$***$##=X+@#$***$$$$-$*$**#$***=$$$$$$$##$$$##$$$$#**",
"$$$$***$###$####@@@=X+@#$$$$$$$$$$$$$$$######$$$==*******$##$####******$$$$$***$##=X+@#$$$$$$$$$$$$$$$=$$$$*$$$$$$#$$$#@##$$##$$",
"$$$$$$$$#######@#@@=X+@##$$*$$$*$$$#$$$#######$#$$$=-=-==####$$$$$$$$$$$$$$$$$$$##=X+@##$$*$$$*$$$$$*******$####$$@######$$$##$#",
"****=**$#@@@@@@@@@@*X++#####$###=****$$########$**==--*$######$*=**$$$$*****=**$$$*X++#####$#####$$$$-==$########@@#####@####@##",
"========$#*$$**$*$*=X+##$#**$###*=---===.O.%O.=*.**.********==---=*==============**X+@**==*$$$$$*--=*******==---=*$$$*===***====",
"+++++++++++++++++++++++++++++++++++.+OO%.&%.&%.OOOX.o.O..XXXXXXXXXXXXXXXXXXXXXXXXXXXXXXXXXXXXXXXXXXXXXXXXXXXXXXXXXXXXXXXXXXXXXXX",
"*****=***====*******=*===*====..O.o.#OOO.%%.O.O..OoO**=****$$########$**==--*$######$*==-==============**X+##$#**$###*=**=******",
"$$$$$$$###****=$$$$$$$****$$$$*##..OoO..O.O.%&.&O#$###$$$#$$$#######$#$$$=-=-==####$$$$*$$$$$*****=**$$$*X++#####$#####*$$$$$$$$",
"$$$$=$$==******$$$$=$$$*$$$$$$$$$$###@O&.&%..O#.@#$$$=$$$$$$$######$$$==*******$##$####$$$$$$$$$$$$$$$##=X+@##$$*$$$*$$$$$=$$$$$",
"$**#$****=$$*$$$**#$**********$$$$$#*#@.#O.%O#.$@#$$$$$$$$$$##$###**$=**-$$*$$####$$$$####$$*$$$$$***$##=X+@#$$$$$$$$$$***$#**$*",
"$**#$$$***==$*$$**#$$$*==**$*****$$#*#@@.#O%..#$@#$$$$=$*$**#$###$$$$****==$$#$###$$$$$$$$$$****$$***$##=X+@#$***$$$$-$$$$$#**$$",
"$*$*=*=***$#**$$*$*=*===*#@#*$$$$*$####$#..+%#$$@#$$=$$*$$**#$#$#$==*********#$##$$$**$$$*$$**==******$#=X+@#$***$$=$$**=*=*$*$$",
"$**$=*=-=*#***$$**$=*=$=-@#-*=*-$$=#$$@$##%+@.**@#$*-=**$$*$*$###$**-===***$*#$##$#=-$**$$$$$*===*****$#*X+@$***$$*=-**==*=$**$$",
"$$$=*==***==*=*$$$=*==$$*##$$$**$$$#**@$#.X+O$**@#*===*$$$**$$#$#$****$$**$**#####$=-*$$*$$$$*===*****$#*X+@$*****==-*====*=$$$*",
"*$***=#**--=-***$***=#=$*#*-$$*=*$$#=*@$$=O+#$$$#=-$==***$$$$####=-==*$$**$$$$$$##$-=$$-*=*=**==$==*$$$$=X+#$$$*==$--**##=***$**",
"$$***$*****-=*=$$***$**=*=#=*=*=*=$#$=#*$=.+$#$$#=*$$$$**=*==$##$*=*=-=******$$$*#-****$***#*=**$***=**$=X+#**=***$$*-***$***$$*",
"$$****#***=****$$****#*$$$$==**=-$$#$*#*$*.+##$$@**$$$$==***$$#$$******=-*****$#*#=****$$$$$***$=**==**$*X+#**==**=$***##****$$$",
"$$$$*****=*****$$$$****=$$$--*=**$$$$*#***X+##$$@*=$$$=*=*=*$###$**=*==*==*==*$#*#**#****$$$***=**=*=****X+$**=*-**=*******$$$$$",
"***$***-*$$$$$****$***==-*#*$$$***=-$-#$#=X+@#$$#**=$$$*=*$$$#*##-**=-=*=**-=$$$*$$**$***$$*$$$$******$#=X+##******$$$$****$***#",
"*=*=$$=******$**=*=$$====$$#**$$$*=-=*###=X+@#$$#$**$$$$**$$$###$$***-==**=***$$*$#*#=***$***$*=*=*==$##=X+@#$==*=*=$$*==$$=*=*=",
"$$*$$*=$****$**$$*$$*=**=$$*$*$$**-=*$#$#=X+@##$#$$##$*$$$$*$$###$*******$****#**$$==*=$**$$$$=$$$$$*$##=X+@#$*$$$$$=$$==*$$*$$$",
"$$$**$=*$$$****$$$**$=$$$#@#**$$*$$=$##$#=X+@@##$###$#$$$$$$*$###$$$****$****$#=**#*=*-*$*$$$*$##$$#$###=X+@#$$#$$##$*$==$**$$$$",
"$$$$$**$***#***$$$$$**$$#$*$$*$$=$$***$##*X+@@@#$#####$-$$*$$$*#*$**$$$******#$*-*#$$$$#**$$$$#*###$$#@#*XX+@@##$#####$***$$$$$$",
"$$$$$$$$$$==***$$$$$$$*$@$*$*$=$$$$***$##*X++@@####$###$$$$$#####$$$$$$$$==*$##$$##***$#**$*=$########@#*X+++@@####$###$$$$$$$$$",
"$$###$$$$*$$=**$$###$$$-#$$$$$$$$$$$$$$##=X++@#@@#######$$######$$$$$$$$*$$=#@$$*##$$$=$$$$$$###$###@@@@*X+++@#@##@@###$$$###$$$",
"$$$$###******==$$$$###$$#$$$$$$=$$$*$$###=X++@@@@@@##@##$$$$$####$**********#@#**$#*$$$$$$$$$$=$$$*$$###$X++@@X@@@@@@######$$$$$",
"###$###*$$$$@@@###$####@###@###@@@#@####@*X+++@+@@++@@@#####$######$$==****$#@$$$$####@###@###@@@#@####@$X+++XX@@++@@@#####$####",
"+++XXXX++@@@@+++++XXXX+@++++++#++++++@++@$XXXXXXXXX+XXXXX+++XXX+@@++++++@@@@+X++@@++++@++++++#++++++@++@#X++XXXXXX+XXXX+XXXX+++X",
"XXXXXXXXXXXXXXXXXXXXXXXXXXXXXXXXXXXXXXXXXXX                                        +++++++++++++++++++++++++++++++++++++++++++++",
"*=---=============**X+##$#**$###*=---===**==**=**********=---===-===*-*******==**##++##$#**$###*=---===**********=---===*$$#***=",
"##$$$$$$*****=**$$$*X++#####$#####$$$$$$=$$$$@$$$$$-$$-=##$$$$$$#######@@@++@@+@+@*+++#####$#####$$$$$$=$*$$*=*-##$$$$$$$$$#@#+@",
"$$$$$$$$$$$$$$$$$##=X+@##$$*$$$*$$$$$$$$$$*$$#=*-=******$$$$$$$$#$$$$###@@@@@@@@@@*++@##$$*$$$*$$$$$$$$$$$***$=*$$$$$$$$$$$###@@",
"$$$$$$$=$$$$$***$##=X+@#$$$$$$$$$$$$$$$=$$$**##=**=$$*$$$$$$$$$=##########@@@@@#@@*++@#$$$$$$$$$$$$$$$=$***$$$**$$$$$$$=$$$$##@#",
"-$*$**#$***$$***$##=X+@#$***$$$$-$*$**#$****$##****==$$$-$*$**#$$$$$#$$###$##$@@@@*++@#$***$$$$-$*$**#$*$$$-=***-$*$**#$$**$$$##",
"$*$$**#$*==******$#=X+@#$***$$=$$*$$**#$$$$$=*$**$##$*-$$*$$**#$$$$*#$-$#####$$@@#*++@#$***$$=$$*$$**#$$-****-=-$*$$**#$*$$***@#",
"**$$$$$=*===*****$#*X+@$***$$*=-**$$$$$=*-***$*$#$**=-=***$$$$$=**$$#$$$#$###$$#@#*++@$***$$*=-**$$$$$=*-=-****$**$$$$$=***==*#@",
"*==$$###*===*****$#*X+@$*****==-*==$$###$===*$$#$*=-=****==$$###$$*$#$$*$##$$#$$@#*++@$*****==-*==$$###$=----=*#*==$$###*==$=-@#",
"**--**$$*==$==*$$$$=X+#$$$*==$--**--**$$*$$$$==$*=-*$$$$**--**$$$=*=$=$$=$$$$$*$@#*++#$$$*==$--**--**$$*$$#****=**--**$$***$$*##",
"-***=--==**$***=**$=X+#**=***$$*-***=--=*$##$*====*-**---***=--=$$$$$*$$$$**$=$$$#*++#**=***$$*-***=--=****=**---***=--=-**=$*#*",
"***$$**=**$=**==**$*X+#**==**=$****$$**=******##$$$**=*=***$$**=-=$$$=*$$$=**$$$$#*++#**==**=$****$$**=*$$*********$$**=*=**=*=#",
"**$$$*****=**=*=****X+$**=*-**=***$$$****==-$****$#$$=*=**$$$******=$=*=$$$=**$$#$*++$**=*-**=***$$$******-****=**$$$*******$$$$",
"$$$$$$$*$$$******$#=X+##******$$$$$$$$$****==*-*=$**$$=*$$$$$$$*=***$==$$$$**=$$#$*++##******$$$$$$$$$****-***=*$$$$$$$*-*-*=$$$",
"$*#***$*$*=*=*==$##=X+@#$==*=*=$$*#***$****=$*$=**--$$*-$*#***$*===****$$$$*==$$#**++@#$==*=*=$$*#***$**==$--*$$$*#***$*-====-*#",
"$$=*=*-$$=$$$$$*$##=X+@#$*$$$$$=$$=*=*-$$=-$***$$$$==$*$$$=*=*-$*=$$#***==$==*$$$$*X+##$*$$$$$=$$=*=*-$$==-*****$$=*=*-$***===$$",
"*$$$$*$$*$##$$#$###=X+@#$$#$$##$*$$$$*$$*===$$*****$*###*$$$$*$$=$**#$$*===*****$#*X+@#$$#$$$$$*$$$$*$$*==*$$****$$$$*$$=****=$$",
"$**$$$$$$#*###$$#@#*XX+@@##$#####$=$$*#$$***$**$$***#*****=*$$$$$#$*$$*$$=$$***$##*X++@###$$$$$$$=$$*#$$**$**$$$*********==$$$#@",
"*$$$*$$=$########@#*X+++@@####$###$$$$@$$$$$$$$$$$$==****$$#$***$@$*$*$=$$$$***$##*++@+######$$$$$$$$@$$$$$$$$$$$$-=****$$$***#@",
"$$$$$$$$###$###@@@@*X+++@#@##@@####$$#@##$$$$$$$$$*$$=**=$*$$$$$-#$$$$$$$$$$$$$$##=++@@@#@######$$$$#@##$$$$$$$$$*$$=**=$***$$@*",
"$####$$######@@@#@@*X+++@@@@@@@@@##$$$@$####$*********==*=*#$*$$$#$$$$$$=$$$*$$###=+++@@@###@##@#$$$$@$###$**********--*-*$$*$##",
"##$$$$$##@@@@@@@@@@$X++++@+@@++@@@####+$######$$=$$$$@@@###@#@@#@###@###@@@#@####@*+++++@+@@++@@@####+$#####$$==****&##$$$$$##@+",
"+@+XXXX+#++++++@++@#X+XXXXXXXX+XXXXX++XXXX+@@+++++@@@@++++@+++++@++++++#++++++@++@$+XXXXXXXXX+XXXXX++XXX+@@++++++O&@Oo+&o@%O+&%@",
"                    XXXXXXXXXXXXXXXXXXXXXXXXXXXXX                                  XXXXXXXXXXXXXXXXXXXXXXXXXXXXXXoOoo%O.%O&o&Oo%",
"===***********==$$$===***********$$**$*$$O @@***===========****===========***==*$*-===*##$$$###$##$$#$##% @@***====***********==",
"+@@#####@@++@@@####@#@@@###$###$++++++++@% X+@@#@@++@@@####@#@@@@#####@#@@++@@@####@#@@@@@#@@+++++++++++% o+@@##@#####@@@@######",
"@@@##@@@@#@@@@@@@@@#@###########@+++++@+@# o+@##@#@@@@@@@@@#@###@@@@##@#@#@@@@@@@@@#@#######@@@@+++++@+%& X+@###@##*#####@@@@###",
"@@########@@@@@@@@@@$###$#*####$@#@@#+++@% o+@#$##@@@@@@@@@@$#####O####$##@@@@@@@@@@$#######+@@@#@@#++++& o+@#$##$$#@$#####O###$",
"@#*##$###$#o@#@@@@@#o####$##*#o$@@@@#o++%& X+@#$#$#o@#@@@@@#o###@@o#@@$##$#o@#@@@@@#o####%##O#@@@@@##++%% o+@#$@$###@$###@@o#@@@",
"%######$$#$$#O@##O#O#*O#@%#O$#@%#O@@##@+O& O+#$#$#$$#O@##O#O#*O#$$##O##$$#$$#O@##O#O#*O#$##o##@#@@@##@+@& X+#$###$O$#%*O#$$##O##",
"O$#%##$O#$%*$###OO##OOo#@@O%$$##@O##O##+%% oO#$##$%*$###OO##OOo#@OOOO@@O#$%*$###OO##OOo#$#%##%#@%#%@#O+O$ oO#$#@@OO$O#Oo#@OOOO@%",
"*##%OO$%OOO$+OOO+O%OOO$O##OO$@%%#OOO#%%+OO O@#o%OOO$+OOO+O%OOO$OOO#OOO@OOOO$+OOO+O%OOO$OoO%OOO%%%%oO%OO%& O@#o%O@OOOO%O$OOO#OOOO",
"OOOO%%OOo@O%OOO@OO#OOoOOO@O#O%##o#%OOOOOO%.oO#OOo@O%OOO@OO#OOoOOOooO#OO%o@O%OOO@OO#OOoOOOOOO+O%%%%Oo@O%%&.OO#OOOO%OOoOoOOOooO#O%",
"OOOOO%+%%O%@OOOO%OOOO%OOOOOO@OOOO%OO%OOOO&.OOO%O%O%@OOOO%OOOO%OOOOOOOOO%%O%@OOOO%OOOO%OO%OOOOOO%OO%OOOO.&.OOO%OOO%OOOO%OOOOOOOO+",
"%oOO@OO%%o%OOOOOOOOOOOOOOOOOOOO@OoOO@Oo%.%.OOOO%%o%OOOOOOOOOOOOOOO+OOOOO%o%OOOOOOOOOOOOOO@OOo%OoOO+Oo%.O%.OOOO%OOOOOOOOOOOO+OOOO",
"OOOOOOOOOOOOOOOOOOoOoOOooOoOOoOOOOOOO%OOO&.%.OO%OOOOOOOOOOoOoOOoOooOoOoOOOOOOOOOOOoOoOOoOOOOOOOOOOO%OOO.O.%.OO%OoOOoOoOOoOooOoOO",
"O.OoOoOooooOOooOOOOOoOOOoOOOoo@O%oOooOOoO&.Oo.oooooOOooOOOOOoOOOOoOOoOOOoooOOooOOOOOoOOOoOoO.O%oOooOOoO.&.Oo.ooOOOOOOoOOOOoOOoOO",
"oOOOo@OoooooOOOoo@OO@o@OOoOooOooooOO.oOooO.oooooooooOOOoo@OO@o@OO@ooOoOoooooOOOoo@OO@o@OooOOOoooOO.oOoo.O.ooooooOo@OO@o@OO@ooOoo",
".oOoooo@@ooooooooOooooOooooOooooooooo.OooO.ooo.O@ooooooooOooooOooooOoooo@ooooooooOooooOo.ooOo.ooooo.Ooooo.ooo.OoooOooooOooooOooo",
"Oo.oooo..oooO.ooooooooooo.oooOooooooooooo%...ooo.oooO.ooooooooooooooo.oo.oooO.ooooooooooooo.oOoooooooooOO...ooo.oooooooooooooo.o",
"oOoooooooooooooooooooooo.oooooooooooooooo&.oOoooooooooooooooooooooo..oooooooooooooooooooooooOooooooooooOo.oOoooooooooooooooo..oo",
"oooo.oooooooo.Oooooooooooooooooo.oooo.ooo%.o%Oo.ooooo.Ooooooooooooooooooooooo.Ooooooooooo.oooo.oooo.oooOo.o%Oo.oooooooooooooooo.",
"%oooooo..oooo.oooo.o.oo.oooooooooooooooooO.Oo%o..oooo.oooo.o.oo.o.o.oooo.oooo.oooo.o.oo.ooooo%ooooooooooO.Oo%o.oooo.o.oo.o.o.oo.",
"o.oo.o.ooooo.ooo..ooo..ooo.o.ooooo..oooooO..o.o.oooo.ooo..ooo..oooo.oo..oooo.ooo..ooo..oo.oo.ooo..ooooooO..o.o.o...ooo..oooo.ooo",
"O.ooo..oo...ooo%.........o...o..Oo..oo.....oo..oo...ooo%...........o.o..o...ooo%.........ooo.OOo..oo....O.oo..oo............o.o.",
"..........oo.Oooo....o..o...............o..oo.o...oo.Oooo....o.....oo..o..oo.Oooo....o..o.............ooO.oo.o...o....o.....oo..",
".....o......O.o..........o...oO.o.%..o...O..........O.o..............o......O.o...............o.%..o...........o..............o.",
"o...........oo.....o...................O............oo.....o....o...........oo.....o.........o.......O..............o....o......",
"................................................................................................................................"
};
