/* XPM */
static char *result[] = {
/* columns rows colors chars-per-pixel */
"128 96 15 1 ",
"  c black",
". c #1C1408",
"X c #1C0414",
"o c #2D2410",
"O c #3D3514",
"+ c #310820",
"@ c #491431",
"# c #611431",
"$ c #791C35",
"% c #494114",
"& c #4D5118",
"* c #902431",
"= c #A82D31",
"- c #C04135",
"; c magenta",
/* pixels */
"                                        ++;;;;;;;;;;;;;;;;;;;;;;;;;;;;;;;;;;;;;;;;;;;;++                                        ",
"+++@@@+++++@+++++++#X++++++++@+++++@@@++++++;;;;;;;;;;;;;;;;;;;;;;;;;;;;;;;;;;;;;;;;++++++++@+++++@@@++++@@++++++@@@@++++@@++++@",
"##$#####@@@++@@+@+@$X+++@+@@++@@@#####$##+++XX;;;;;;;;;;;;;;;;;;;;;;;;;;;;;;;;;;;;XX+++#+@@++@@@#####$######$$==****###$$$$$###@",
"##$$$$$##@@@@@@@@@@$X++@@@@@@#####$$$$$#@#@@++X+;;;;;;;;;;;;;;;;;;;;;;;;;;;;;;;;+X++@@#@@@@@@@@##$$$$$####$**********==*=*$$*$$$",
"$####$$######@@@#@@*X++@#@########$$#####@#@+@++++++++++++++++++++++++++++++++++++@+@#@#@@@######$$####$$$$$$$$$$*$$=**=$***$$$=",
"$$$$$$$$###$###@@@@*X++@@####$###$$$$$$$#@#@@#@+X@@@@@@@@@@@@@@@@@@@@@@@@@@@@@@X+@#@@#@#@#######$$$$$$$$*$$$$$$$*$==****$$$****$",
"*$$$*$$=$########@#*X+@@##$#####$=$$*$$$#@@@#@#@X########$##$##$$##$##$########X@#@#@@@########$=$$*$$$***$**$$$*********==$$$$$",
"$**$$$$$$#*###$$#@#*X+@##$$###$#$$$$$$**#@@#@@@+X##############################X+@@@#@@#$$###$#$$$$$$**$==*$$****$***====****=*=",
"****$$$$*$##$$#$###=X+@#$$#$$##$*$$$$*$$###@@@@@XXXXXXXXXXXXXXXXXXXXXXXXXXXXXXXX@@@@@###$#$$##$*$$$$*$$*===**********$#****===*=",
"**=*=*=$$=$$$$$*$##=X+@#$*$$$$$=$$=*=*-$####@@@#X@@@#@#@@@@##@@@@@@##@@@@#@#@@@X#@@@####*$$$$$=$$=*-*=$$==*==*$$$$$***$*=======*",
"******$*$*=*=*==$##=X+@#$==*=*=$$*#***$*$#@##@#@X###$$#$#$$$$$#$$#$$$$$#$#$$###X@#@##@#$==*=*=$$*#***$******=****$**=====*=*=$==",
"**$$$$$$$$$******$#=X+##******$$$$$$$$$*##@####@X#$$#$#$#$#$$#$$$$#$$#$#$#$#$$#X@####@##*****$$$$$$$$$****$$$=****==********$$*=",
"******$***=**=*=****X+$**=*-**=***$$$***$####@##X####$#$#$$$$$$$$$$$$$$#$#$####X##@####$=*=**=***$$$****$*****==*==*==*=*=**=*=*",
"$***$$****$=**==**$*X+#**==**=$****$$**=$$#$$@##X#$$$$$#$$$$$$$$$$$$$$$$#$$$$$#X##@$$#$$==**=$****$$******$$=-==**=*=====******=",
"=*******=**$***=**$=X+#**=***$$*-***=--=#$###$@#X#$$$$$$$$#$$$$$$$$$$#$$$$$$$$#X#@$###$#=***$$*=*************==*=**===********==",
"***=*****==$==*$$$$=X+#$$$*==$--**--**$$$#$##$@$X#$$$$$$$$$$$$$$$$$$$$$$$$$$$$#X$@$##$#$***=$=-***********==*$***$$$$$*****===**",
"**=****$*===*****$#*X+@$*****==-*==$$###$#$#$$##X#$#$$$$$$$$$$$$$$$$$$$$$$$$#$#X##$$#$#$****==-*$****-****==***$#******=**=====*",
"==*****$*===*****$#*X+@$***$$*=-**$$$$$=$#$$#$##X#$#$$$$$$$$*$$$$$$*$$$$$$$$#$#X##$#$$#$****==-*$****===*-=*==*$$****==****=====",
"====**=**==******$#=X+@#$***$$=$$*$$**#$$$##$#$$X##$#$$$$$$$$******$$$$$$$$#$##X$$#$##$$***$*==**=**-==-**=*===*******==*=**===*",
"*==**$*****$$***$##=X+@#$***$$$$-$*$**#$*$####$$X@$$$$$$*$**$******$**$*$$$$$$@X$$####$****$$********==-***===****==**$***$**$**",
"********$$$$$***$##=X+@#$$$$$$$$$$$$$$$=$$$$####X#$*$$$*$$$$********$$$$*$$$*$#X####$$$$***$$$$**=*******$$$******==*$$$$$$$$$$$",
"$*$$$$$$$$$$$$$$$##=X+@##$$*$$$*$$$$$$$$*$$$#$$$X#$$$$$$$*$*$$****$$*$*$$$$$$$#X$$$#$$$*$$$$$$$$$$$$$$*$$$***********$$$$$$$$$$#",
"****$$$$*****=**$$$*X++#####$#####$$$$$$***$$$$$X#$$$$$*$$$$$$$$$$$$$$$$*$$$$$#X$$$$$***$$$$###$$$$$$$$$$*$$****$$$$$$$**$$$####",
"===*==============**X+##$#**$###*=---======*****X#$**$$$*$$*$$$**$$$*$$*$$$**$#X*****=====*$$$$$*--==.O.%O.==.**.*$$$*===***====",
"++++++++++++++++++++++++++++++++++++++++XXXXXXXXX#******=**====**====**=******#XXXXXXXXX++XXXXXXXXXO%.&%.&%.OOOX.o.O..XXXXXXXXXX",
"***==****====***##@##@###$**$$$$$*$$$$$$$$$$@#X+XXXXXXXXXXXXXXXXXXXXXXXXXXXXXXXX+X#@$$$$**===***$$**$$#%*O.O..OoO..**********=**",
"##$$$$$###****==$$##@@##$#####@@@++@@+@+****@@X+X$*****===************===*****$X+X@@****$$$$##@@@@@@@@@@.%&.&O@@$$$$*$$$$$$$$$$*",
"$*$$*=*==**********$@#@#$$$$$##@#@@@@@@@*$$#$@X+X#*$$$$**$$**********$$**$$$$*#X+X@$#$$*@#$$####@@@@@#@@*.O@.$@@$$$$$$$$$$$$=$$$",
"$$***$=**=$$*$$$$$$$#######$$######@@@#@***$*@X+X#***$**$******$$******$**$***#X+X@*$***#$$$$###$##$@@@@%O+.#$###$$$$=$*$**#$***",
"***$$$****==$*$$$$$$####$$$$$$###$####@@$$*$#@X+X#$$$$**$$************$$**$$$$#X+X@#$*$$$*$$=$#####$$@@#*..@#$#*#$$=$$*$$**#$$$$",
"$$$==*********$$$**###*#$$*$$=$#####$#@@*$$**$X-X#$***$******************$***$#X-X$**$$*$$$$$$#$###$$#@#*%+@$*#*#**==**$$*$*=*=*",
"=****====***$****$$##$$#$$$$$$$#$###$##@=$$$$#X=X#*$$**$*$************$*$**$$*#X=X#$$$$=*$$$$*$##$$#$$@#* .@$*#*#*===*$$$**$=*==",
"===****#$**********$#$*##*$$$$*$##$$#$##*$***#X-X#$$************************$$#X-X#***$**=*-$$=$$$$$*$@#*O+#$$@*$=$==***$$$=*===",
"======*$***$$$$$*==##$$##*=*=$$-$$$$$*$#=**$@#X-X#****************************#X-X#@$**=$$**$$$$**$=$$$#*.+#$*#*#*$$*=***$***=##",
"$=*=*=====**$****=*$$**$#***#*$$-*=*=-$#***$@$X=X#$$************************$$#X=X$@$***$$*=*$$$=**$$$$#*.+#$*$=#*=$****$$***$**",
"$$********==****=$$$$***#$$$$$$$$******#*=$$#@X*X#****************************#X*X@#$$=**=*=*=$$$=**$$#$*.+#$*$=#**=***$$$****##",
"*=**=*=*==*==*==***#$$*##*$$$***-**-*=**=**$##X=X#*****$****************$*****#X=X##$**==**=-$$$$**-$$#$*X+@$##*#**$$$$$$$$$****",
"$$*=***$***=###****$=*-##=-=****$$**=-***$*###X=X@****************************@X=X###*$*-*=**$$$$*==$$#**X+@#@**#=*=$$*#***$****",
"$==***$$$=*=======*$***$#$$$*=-=-$=**-**=$*#*@X-X#$$************************$$#X-X@*#*$=$$$***=-$-=*$$$$*X+@#$$$@$$$=$$=*=*=$$==",
"===*******$**##****$-=*#@**$$$*==-*****$*$=*#@X-X#$$$**********************$$$#X-X@#*=$***$$$*=-=*****$#*X+@#$$$@$##$*$$$$*$$*==",
"==*$$****$*#*====**#*-*#$#*$$**==*$$***$***$#@X-X#$*$*$******************$*$*$#X-X@#$***$*$$**-=*$$***$#*X+@@#$$##$$#$$$$$$**$==",
"**$**$$$***#*****=*$$$$$#$*$$*$$=$$***$#*$$$#@X=X#*$**$******************$**$*#X=X@#$$$***$$*$$=$$***$##*X+@####$$$$$$$$$$$$$***",
"$$$$$$$$$$==****$$#$***$@$*$*$=$$$$***$#*$**$@X-X#******$**************$******#X-X@$**$***$*$-$$$$***$##*X++###$$#$###$$$$$$$$$$",
"$$$$$$$$$*$$=**=$*$$$$$-#$$$$$$$$$$$$$$#$$##@#X=X#****$$$**************$$$****#X=X#@##$$$$$$$$$$$$$$$$##*X++@##@#####$#$$$###$$$",
"##$**********==*=*#$*$$$#$$$$$$=$$$*$$##$##*@+X=X##############################X=X+@*##$$$$$$$=$$$*$$###*X++@@X@@@#@@##$$$$$####",
"@@@@##**$$$$@@@###@#@@#@###@###@@@#@#######@@+XOXXXXXXXXXXXXXXXXXXXXXXXXXXXXXXXXOX+@@#####@###@@@#@####@*X+++XX@@++@@@#####$####",
"+@@++++++@@@@++++@+++++@++++++#++++++@++@++XX@=*X$***$$==*===******===*==$$***$X*=@XX++@+o+++#++++++@++@*X++XXXXXX+XXXXX+++XXXX+",
"XXXXXXXXXXXXXXXXXXXXXXXXXXXXXXXXXXXXXXXXX@=-==$$X#$$$*$**$$*$*$**$*$*$$**$*$$$#X$$==-=@XOXO%.XoXXXXXXXXXXXXXXXXXXXXXXXXXXXXXXXXX",
"=====**$$#*$$**$*$*=X@@##$******=****$$#==**$$#$X#***#$*$*$$**$**$**$$*$*$#***#X$#$$**==*o*o**o******##$@###$*$$**=**====*******",
"##$$$$$##@@@@@@@@@@*X++###$#$###$$$#$$$#**$**##$X@$$$$$$****$$****$$****$$$$$$@X$##**$**$$*$$$*$$$$$####$$@$*=*==**********$####",
"$##############@#@@=X+@##$$*$$$=$$$$$$$#$****$#$X@$$$*$$*$$$$**$$**$$$$*$$*$$$@X$#$****$$$$$$$$$$$$$$*-###$**$=**=$$*$$$$$$$$$$#",
"$$$$##$$###$####@@@=X+@#$$$$$$$$$$$$$$##$*$#**#$X#$$$$$$$$$*$$*$$*$$*$$$$$$$$$#X$#**#$*$***$$$$=$*$**#$##$*$$$****==$$$$$$$$$$$$",
"*$$$*$$$$#####$##@#=X+@#$***$$$$=$*$**#$**$#$##$X#$$$$$**$$**$$$$$$**$$**$$$$$#X$##$#$*****$$=$$*$$**#*##$$==*********$$$**$***$",
"$**$$$$$$#$###$$###=X+@#$***$$=$$*$$**#$*$#$##@@X#$$$$$*$$*$*$$**$$*$*$$*$$$$$#X@@##$#$***$$*==**$$*$*=###$**====###$****$$*==$*",
"*$$*$$$$*$##$$#$$##*X+@$***$$*-=**$$*$*$$$#$##@$X#$#$$$*$***$*$$$$*$***$*$$$#$#X$@##$#$$****=-=*$$$**$$###$****$##*$#******===*$",
"$$=*=*=$$=$$$$$*$##*X+@$*****===*$$$**$$*$$$####X#$$$$$$$$*$$$$$$$$$$*$$$$$$$$#X####$$$*$*=-$==***$$$$$###$====-$**-$$$$*==$==$$",
"*$$$$**$$$$**$=$$##*X+#$$$*=-$==***$$$$#$*#$#$@$X#$$$$$$$$$*$$$$$$$$*$$$$$$$$$#X$@$#$#*$=***$$*-***$*$$####***=-==-=*===***$$**$",
"*==*****$$$=**$$$##=X+$#$$==*$$$$**=*==$$$#$##@$X#$$$$$##$$$*$$$$$$*$$$##$$$$$#X$@##$#$$-=**=$****$$*#$##$$=**==--=*=*===**=$**=",
"=*****==*$$$=**$$#$=X+##$$=**$$$$==***$$$#$#$#@$X#$$$$$$$$$$$$$$$$$$$$$$$$$$$$#X$@#$#$#$=*=**=***$$$$$###$$*****==*==*==*=**=*=*",
"*=**$*==*$$$**=$$#$=X+##$$**=$$$=*=*=*$#$#$$$###X#$$$$$$$$$#$$$##$$$#$$$$$$$$$#X###$$$#$*****$$$$$$$#$#$#$=****=****==******$$*=",
"===$*****$$$*==$$#*=X+@#$$$**=$$$*=*$$$#$#$##$$@X##$$$$$$$$$$#$$$$#$$$$$$$$$$##X@$$##$#$==*=*=$$*#*$$$#$#$=***=*******===*=*=$==",
"=*$******==$==*$$$$*X+##$$=$**$$$$**$$$#$####$#@X#$###$$##$###$$$$###$##$$###$#X@#$####$*$$*$$=$$=**$#$$#$$==*$$$$$***$*=======*",
"*=$**$$**--=*****$#*X+###$#$$##$*$$$$*$$#$###$@@X@##$#$##$$#$$#@@#$$#$$##$#$##@X@@$###$#$#$***$*$*$#$@$*#$-*******$**$$****===*=",
"*=*$*$$**-=******$#*X+@###$###$#$$$$$$*$#$$#$@@#X@@#@$##$$$###@@@@###$$$##$@#@@X#@@$#$$##$#$$*$$$**$##*$#$*$$****$***====****=*=",
"$$$$$$$****$$***$##=X+@###$#####$-$$*$$$###$@@++X@@@@@@@@@@@@@@@@@@@@@@@@@@@@@@X++@@$####$#$##$*=$**##$**$#**$$$*********==$$$$$",
"*$$$$$$$$$$$$***$##=X++@@####$###$$$$$####@@++++XXXXXXXXXXXXXXXXXXXXXXXXXXXXXXXX++++@@####$#$#$$$**$##$$$##$$$$$$$==****$$$****$",
"$=$$#$$$##$$#$$$$##=X++@##########$$#####@@@+@++X$$**##******$$$$$$******##**$$X++@+@@@#@#####$$$$$##@#$$$#$$$$$$*$$=**=$***$$$=",
"$$##$$$$$$$$###$###*X++@@##@@#####$$$$$##@+++XX*X##o###$#$O$$$#$$#$$$O$#$###o##X*XX+++@#@@@@@####$$$######@$*********==*=*$$*$$$",
"#@###@###@@@#@####@$X+++@+@@++@@@#####$#+++ X$ *X#$#$##oOo#$##$##$##$#oOo##$#$#X* $X ++++@@++@@@####@#####@@$$==****###$$$$$###@",
"+@+XXXX+#++++++@++@#XXXXXXXXX+XXXXX+++XX++X$$@ *.#@@%@#%#$$%@@%$$%@@%$$#%#@%@@#.* @$$X++++++@+++++@++XXXX+XXXXXXX++++XXXX@@++++@",
"                    X                   XX$#@o.O.%@@%oO%%%OO%%%%%%%%OO%%%Oo%@@%.O.o@#$XX                                        ",
"**********=***==*$*-===*##$$$###$##$$#$#$$@OOo.O.O%%OOoOOO#o%%%%%%%%o#OOOoOO%%O.O.oOO@$$********$$**$*$$$ $$$*$**$$***==========",
"@#@@#$#$$###@####@@@++@@@@@#@@++++++++++@#OO+o.O.OO@%o%@%oooO%oOOo%Oooo%@%o%@OO.O.o+OO#@####@@+++++++++@% oX+++++++++@@#####@@@@",
"@@###@$##$@@#@@@@@@@@@#@@@###@@@@+++++@+O@@+Oo.O.ooooOOooOoooOOooOOoooOooOOoooo.O.oO+@@O@@##@@@@+++++@+@& oX+@+++++@@@@##@@@@###",
"###@@@####$$@@@@@@@@@@#######+@@@#@@#+++@OO+Oo.O.oooooooooooooooooooooooooooooo.O.oO+OO@#####@@@#@@#+++@% XX+++#@@#@@@####O#####",
"@@@$$######o#@@@@@#@o#$###%##O#@@@@@##++@O@OOo.O.oOOoooOoo.O%oOooOo%O.ooOoooOOo.O.oOO@O@#$##*#@@@@@#o++## o+++##@@+++@$@@#o@@###",
"$###O$$$oO##O#O##@O#$$#$o###o##@#@@@##@+OOOOoo.O.ooooO@ooOo.oooooooo.oOoo@Ooooo.O.ooOOOO######%#O@@##@+#% o++@##@@@OO###O##$$#O*",
"$$$##OOOO##O##OO###$*%$#O$#%##%#@%#%@#O+@OoOOo.O..Oooo.o..oOooooooooOo..o.oooO..O.oOOoO@$##%#$O@O##O##+#& %+O#O@##@+@#@@OOOO@#oO",
"###OO#@OO@OOO%O+OOO+$OOOO$O%OOO%%%%oO%OOOOoooo.O.oooooooooOooooooooooOooooooooo.O.ooooOO$OO%##*#OOO#%#+O& oO+#$##OOOOO@OOO#OOO$O",
"O+O#OO#OOOOOO#OO@OOO%O@oOOOOO+O%%%%Oo@O%OOoOoo.O..ooo.oo.ooo.oooooo.ooo.oo.ooo..O.ooOoOOO%%OOOOo#%OOOOOO&.oXoOOOO@OOoOOO#OooOOOo",
"@OOO@OOOOOOOOOO%OOOO@%O%@%OOOOOO%OO%OOOOOOOooo.o..oooo.o.oo%oooooooo%oo.o.oooo..o.oooOOO+%OOOOOO%OO%OOOO%.%OoOOO@OOO+OOOOOOOOOO%",
"O@OOOOOOOO@OOOOOOOOOO%o%OO@OOo%OoOO+Oo%.oOoooo.O.o.oo.o.oo.ooo....ooo.oo.o.oo.o.O.ooooOoOO@OOo%OoOO@Oo%.o.OOOOOoO@OOOOOOOO+OOOOO",
"OOOoOOoOoOooOoOOOOOOOOOOOOOOOOOOOOOO%OOOoooooo.o.oo...o.oo.OOo....oOO.oo.o...oo.o.ooooooOOOOOOOOOOOO%OOOO.oooOOOOOOoOOoOoOooOoOO",
"OO@ooOOOoOOoOOOOOooOOoooOoOoO.O%oOooOOoOOoooo..o.O.oo...O..............O...oo.O.o..ooooOOoOoO.O%oOooOOoO..ooo..oOO@ooOOOoOOoOOOO",
"oooOooOoOoo@OO@ooOOOooooO@oOOOoooOO.oOoooooo...o................................o...ooooO@oOOOoooOO.oOooO.o.oooooooOooOoOoo@OO@o",
"oooooOoooOooooOoooooooo@ooooOo.ooooo.Ooooooo.o.o................................o.o.ooooooooOo.ooooo.OooO.O.oooooooooOoooOooooOo",
"oooOooo.oooooooooo.Oooo.oooo.oOoooooooooooooo...                                ...ooooooooo.oOooooooooo%....o.ooooOooo.oooooooo",
"oooooooo..oooooooooooooooooooOoooooooooooooo.o..                                ..o.oooooooooOoooooooooo&.oooo.ooooooooo..oooooo",
".ooooooooooooooooO.ooooooo.oooo.oooo.oo.O.O.oOoOooOOOOOoOOOOOoOOOOoOOOOOoOOOOOooOoOo.O.Oo.oo..oooooo.ooo%.o..ooo.ooooooooooooooo",
".oooooooo.o.o.oooo.oooo.oooooo%oooooooOOOOOOOOOOOOOoOoOOOoOOOOOooOOOOOoOOOoOoOOOOOOOOOOOOOooo%ooooooooooO.ooo.o..oooooooo.o.o.oo",
"oooo.o.oo.oooo..ooo.oooo.o.oo.ooo..ooooo.o.oo.oooo..ooo.oooo.o.oo.o.oooo.ooo..oooo.oo.o.ooo.ooooo..oooooO.o.o...oooo.o.oo.oooo..",
"...o...o.o......%ooo...o..ooo.OOo..oo..o...o.o......%ooo...o...oo...o...ooo%......o.o...%ooo...oo..oo.....oo..o....o...o.o......",
"........oo.....oooO.oo......................oo.....oooO.o..............o.Oooo.....oo....ooO.oo.........o..ooo.o.........oo.....o",
"..Oo...o.........o.O.....o.....o.%..o.Oo...o.........o.O..Oo...oo...oO..O.o.........o....o.O.....%..o...O......o..Oo...o........",
"............o.....oo..........o.................o.....oo................oo.....o..........oo..........O.....................o...",
"................................................................................................................................"
};
